<svg width="24.000000" height="24.000000" viewBox="0 0 24 24" fill="none" xmlns="http://www.w3.org/2000/svg" xmlns:xlink="http://www.w3.org/1999/xlink">
	<desc>
			Created with Pixso.
	</desc>
	<defs>
		<clipPath id="clip64_3">
			<rect id="Cardholder" width="24.000000" height="24.000000" fill="white" fill-opacity="0"/>
		</clipPath>
	</defs>
	<g clip-path="url(#clip64_3)">
		<path id="path" d="M20.5858 4L4.42419 4C4.26501 4 4.10742 4.01562 3.95129 4.04639C3.79517 4.07764 3.64355 4.12354 3.49646 4.18457C3.34949 4.24561 3.20972 4.32031 3.07739 4.40869C2.94507 4.49707 2.82263 4.59766 2.71008 4.70996C2.59753 4.82275 2.49695 4.94482 2.40857 5.07764C2.32007 5.20996 2.24548 5.34961 2.18457 5.49658C2.12366 5.64355 2.07764 5.79541 2.04663 5.95117C2.0155 6.10742 2 6.26514 2 6.42432L2 17.7373C2 17.8965 2.0155 18.0542 2.04663 18.2104C2.07764 18.3662 2.12366 18.5181 2.18457 18.665C2.24548 18.812 2.32007 18.9517 2.40857 19.084C2.49695 19.2163 2.59753 19.3389 2.71008 19.4517C2.82263 19.564 2.94507 19.6646 3.07739 19.7529C3.20972 19.8413 3.34949 19.916 3.49646 19.9771C3.64355 20.0381 3.79517 20.084 3.95129 20.1147C4.10742 20.146 4.26501 20.1616 4.42419 20.1616L20.5858 20.1616C20.745 20.1616 20.9026 20.146 21.0587 20.1147C21.2148 20.084 21.3665 20.0381 21.5134 19.9771C21.6605 19.916 21.8003 19.8413 21.9326 19.7529C22.0649 19.6646 22.1874 19.564 22.2999 19.4517C22.4125 19.3389 22.5131 19.2163 22.6014 19.084C22.6898 18.9517 22.7645 18.812 22.8254 18.665C22.8864 18.5181 22.9324 18.3662 22.9634 18.2104C22.9945 18.0542 23.01 17.8965 23.01 17.7373L23.01 6.42432C23.01 6.26514 22.9945 6.10742 22.9634 5.95117C22.9324 5.79541 22.8864 5.64355 22.8254 5.49658C22.7645 5.34961 22.6898 5.20996 22.6014 5.07764C22.5131 4.94482 22.4125 4.82275 22.2999 4.70996C22.1874 4.59766 22.0649 4.49707 21.9326 4.40869C21.8003 4.32031 21.6605 4.24561 21.5134 4.18457C21.3665 4.12354 21.2148 4.07764 21.0587 4.04639C20.9026 4.01562 20.745 4 20.5858 4ZM14.8807 11.7588C14.8241 12.0312 14.7235 12.2871 14.5787 12.5254C14.434 12.7637 14.2535 12.9707 14.0374 13.1465C13.8212 13.3223 13.5817 13.457 13.3191 13.5503C13.0564 13.644 12.7858 13.6904 12.5071 13.6904C12.2283 13.6904 11.9576 13.644 11.6949 13.5503C11.4324 13.457 11.1929 13.3223 10.9767 13.1465C10.7605 12.9707 10.5801 12.7637 10.4353 12.5254C10.2905 12.2871 10.1899 12.0312 10.1333 11.7588C10.0961 11.5757 10.0292 11.4043 9.93262 11.2446C9.83618 11.085 9.71558 10.9463 9.57092 10.8281C9.42627 10.7104 9.26599 10.6201 9.09021 10.5576C8.91431 10.4951 8.73303 10.4644 8.54639 10.4648L3.61621 10.4648L3.61621 8.84863L21.3938 8.84863L21.3938 10.4648L16.4636 10.4648C16.2773 10.4648 16.0964 10.4961 15.921 10.5586C15.7456 10.6216 15.5858 10.7114 15.4415 10.8296C15.2974 10.9473 15.1771 11.0859 15.0808 11.2456C14.9846 11.4048 14.9178 11.5762 14.8807 11.7588ZM4.42419 5.61621L20.5858 5.61621C20.6929 5.61621 20.796 5.63672 20.895 5.67773C20.994 5.71875 21.0814 5.77686 21.1571 5.85303C21.2329 5.92871 21.2914 6.01611 21.3323 6.11523C21.3733 6.21387 21.3938 6.31689 21.3938 6.42432L21.3938 7.23242L3.61621 7.23242L3.61621 6.42432C3.61621 6.31689 3.6366 6.21387 3.67761 6.11523C3.71863 6.01611 3.7771 5.92871 3.85278 5.85303C3.92859 5.77686 4.01599 5.71875 4.11499 5.67773C4.21399 5.63672 4.31702 5.61621 4.42419 5.61621Z" fill="#FFFFFF" fill-opacity="1.000000" fill-rule="nonzero"/>
	</g>
</svg>
