<svg width="24.000000" height="24.000000" viewBox="0 0 24 24" fill="none" xmlns="http://www.w3.org/2000/svg" xmlns:xlink="http://www.w3.org/1999/xlink">
	<desc>
			Created with Pixso.
	</desc>
	<defs>
		<clipPath id="clip35_172">
			<rect id="Звезды" width="24.000000" height="24.000000" fill="white" fill-opacity="0"/>
		</clipPath>
	</defs>
	<g clip-path="url(#clip35_172)">
		<path id="path" d="M8.43561 16.5217L7.99879 22.3518C7.96809 22.7615 8.33231 23.0435 8.65805 22.8611C10.9644 21.5691 18.1891 16.824 21.8508 6.39502C22.0188 5.9165 21.5676 5.48486 21.1823 5.75464C19.0193 7.26953 14.2923 10.4004 11.371 10.9966C11.371 10.9966 13.2418 9.69727 14.3616 7.70264C14.4713 7.50708 14.4622 7.25684 14.3398 7.08032L10.2563 1.19458C10.0143 0.845703 9.5177 0.990234 9.4303 1.43506L8.15906 7.90356L2.19218 13.1113C1.89301 13.3723 1.95404 13.8997 2.29945 14.0396L8.43561 16.5217Z" fill="#FAAD14" fill-opacity="1.000000" fill-rule="evenodd"/>
		<path id="path" d="M18.9873 14.2239C18.6094 14.7512 17.7954 15.8357 17.0438 16.4985C16.8936 16.6311 16.9138 16.8533 17.0862 16.9617L21.0573 19.4546C21.2963 19.6045 21.6192 19.4263 21.5788 19.166C21.3941 17.9749 20.8618 15.491 19.5164 14.187C19.3661 14.0415 19.1071 14.0569 18.9873 14.2239Z" fill="#FAAD14" fill-opacity="1.000000" fill-rule="evenodd"/>
	</g>
</svg>
