<svg width="32.000000" height="32.000000" viewBox="0 0 32 32" fill="none" xmlns="http://www.w3.org/2000/svg" xmlns:xlink="http://www.w3.org/1999/xlink">
	<desc>
			Created with Pixso.
	</desc>
	<defs>
		<filter id="filter_35_172_dd" x="0.000000" y="0.000000" width="32.000000" height="32.000000" filterUnits="userSpaceOnUse" color-interpolation-filters="sRGB">
			<feFlood flood-opacity="0" result="BackgroundImageFix"/>
			<feColorMatrix in="SourceAlpha" type="matrix" values="0 0 0 0 0 0 0 0 0 0 0 0 0 0 0 0 0 0 127 0" result="hardAlpha"/>
			<feOffset dx="0" dy="4"/>
			<feGaussianBlur stdDeviation="1.33333"/>
			<feComposite in2="hardAlpha" operator="out" k2="-1" k3="1"/>
			<feColorMatrix type="matrix" values="0 0 0 0 0 0 0 0 0 0 0 0 0 0 0 0 0 0 0.25 0"/>
			<feBlend mode="normal" in2="BackgroundImageFix" result="effect_dropShadow_1"/>
			<feBlend mode="normal" in="SourceGraphic" in2="effect_dropShadow_1" result="shape"/>
		</filter>
		<clipPath id="clip35_172">
			<rect id="Звезды" width="24.000000" height="24.000000" transform="translate(4.000000 0.000000)" fill="white" fill-opacity="0"/>
		</clipPath>
	</defs>
	<g filter="url(#filter_35_172_dd)">
		<g clip-path="url(#clip35_172)">
			<path id="path" d="M12.4356 16.5217L11.9988 22.3518C11.9681 22.7615 12.3323 23.0435 12.6581 22.8611C14.9644 21.5691 22.1891 16.824 25.8508 6.39502C26.0188 5.9165 25.5676 5.48486 25.1823 5.75464C23.0193 7.26953 18.2923 10.4004 15.371 10.9966C15.371 10.9966 17.2418 9.69727 18.3616 7.70264C18.4713 7.50708 18.4622 7.25684 18.3398 7.08032L14.2563 1.19458C14.0143 0.845703 13.5177 0.990234 13.4303 1.43506L12.1591 7.90356L6.19218 13.1113C5.89301 13.3723 5.95404 13.8997 6.29945 14.0396L12.4356 16.5217Z" fill="#FAAD14" fill-opacity="1.000000" fill-rule="evenodd"/>
			<path id="path" d="M22.9873 14.2239C22.6094 14.7512 21.7954 15.8357 21.0438 16.4985C20.8936 16.6311 20.9138 16.8533 21.0862 16.9617L25.0573 19.4546C25.2963 19.6045 25.6192 19.4263 25.5788 19.166C25.3941 17.9749 24.8618 15.491 23.5164 14.187C23.3661 14.0415 23.1071 14.0569 22.9873 14.2239Z" fill="#FAAD14" fill-opacity="1.000000" fill-rule="evenodd"/>
		</g>
	</g>
</svg>
