<svg width="26" height="31" viewBox="0 0 26 31" fill="none" xmlns="http://www.w3.org/2000/svg">
<mask id="mask0_42_38" style="mask-type:alpha" maskUnits="userSpaceOnUse" x="0" y="0" width="26" height="31">
<rect width="26" height="31" fill="#D9D9D9"/>
</mask>
<g mask="url(#mask0_42_38)">
<path d="M12.5 27.125C11.1007 27.125 9.8036 26.7806 8.60881 26.0917C7.41402 25.4028 6.47218 24.4556 5.78329 23.25H2.16663V20.6667H4.87913C4.81454 20.2361 4.77687 19.8056 4.7661 19.375C4.75534 18.9444 4.74996 18.5139 4.74996 18.0833H2.16663V15.5H4.74996C4.74996 15.0694 4.75534 14.6389 4.7661 14.2083C4.77687 13.7778 4.81454 13.3472 4.87913 12.9167H2.16663V10.3333H5.78329C6.08468 9.83819 6.42374 9.37535 6.80048 8.94479C7.17722 8.51424 7.61315 8.1375 8.10829 7.81458L6.04163 5.68333L7.84996 3.875L10.627 6.65208C11.2298 6.45833 11.8434 6.36146 12.4677 6.36146C13.092 6.36146 13.7055 6.45833 14.3083 6.65208L17.15 3.875L18.9583 5.68333L16.827 7.81458C17.3222 8.1375 17.7689 8.50885 18.1671 8.92865C18.5654 9.34844 18.9152 9.81667 19.2166 10.3333H22.8333V12.9167H20.1208C20.1854 13.3472 20.223 13.7778 20.2338 14.2083C20.2446 14.6389 20.25 15.0694 20.25 15.5H22.8333V18.0833H20.25C20.25 18.5139 20.2446 18.9444 20.2338 19.375C20.223 19.8056 20.1854 20.2361 20.1208 20.6667H22.8333V23.25H19.2166C18.5277 24.4556 17.5859 25.4028 16.3911 26.0917C15.1963 26.7806 13.8993 27.125 12.5 27.125ZM9.91662 20.6667H15.0833V18.0833H9.91662V20.6667ZM9.91662 15.5H15.0833V12.9167H9.91662V15.5Z" fill="#474747"/>
</g>
</svg>
