<svg width="31" height="25" viewBox="0 0 31 25" fill="none" xmlns="http://www.w3.org/2000/svg">
<path d="M26.7043 3.16121C24.0206 0.902322 19.7769 0.519656 19.5975 0.503422C19.3141 0.477911 19.0451 0.646052 18.9288 0.917397C18.9244 0.926673 18.6875 1.64678 18.4583 2.34137C21.5771 2.91305 23.6962 4.18165 23.8091 4.25122C24.3383 4.57359 24.5155 5.28442 24.2066 5.83754C24.0017 6.20629 23.6309 6.4127 23.25 6.4127C23.0607 6.4127 22.8702 6.36284 22.6953 6.25615C22.6643 6.23644 19.5555 4.38341 15.5022 4.38341C11.4479 4.38341 8.33789 6.2376 8.30689 6.25615C7.77879 6.57736 7.10121 6.38835 6.79454 5.83406C6.48786 5.2821 6.66611 4.57359 7.19311 4.25122C7.30604 4.18165 9.43286 2.90841 12.5605 2.3379C12.3192 1.63518 12.0756 0.926673 12.0712 0.917397C11.9549 0.644893 11.6859 0.473273 11.4025 0.503422C11.2231 0.518497 6.97943 0.901162 4.26029 3.19135C2.83871 4.56663 0 12.6072 0 19.559C0 19.6819 0.0298929 19.8013 0.0885715 19.908C2.04932 23.5143 7.39461 24.4583 8.61246 24.4988C8.62021 24.5 8.62686 24.5 8.6335 24.5C8.84829 24.5 9.05089 24.3922 9.17821 24.2101L10.4957 22.3408C7.60607 21.6115 6.07821 20.4646 5.98632 20.3939C5.49475 20.0147 5.38846 19.2888 5.7505 18.7728C6.11143 18.2591 6.80229 18.1454 7.29386 18.5223C7.33482 18.5501 10.1547 20.6177 15.5 20.6177C20.8663 20.6177 23.6785 18.542 23.7061 18.5211C24.1977 18.1478 24.8908 18.2602 25.2506 18.7774C25.6093 19.2923 25.5052 20.0135 25.0159 20.3916C24.924 20.4623 23.4039 21.6068 20.5209 22.3362L21.8218 24.2089C21.9491 24.3922 22.1517 24.4988 22.3665 24.4988C22.3742 24.4988 22.3809 24.4988 22.3875 24.4977C23.6065 24.4571 28.9518 23.5132 30.9114 19.9069C30.9701 19.8002 31 19.6807 31 19.5578C31 12.6072 28.1613 4.56663 26.7043 3.16121ZM11.0714 17.1389C9.84803 17.1389 8.85714 15.8413 8.85714 14.2399C8.85714 12.6385 9.84803 11.341 11.0714 11.341C12.2948 11.341 13.2857 12.6385 13.2857 14.2399C13.2857 15.8413 12.2948 17.1389 11.0714 17.1389ZM19.9286 17.1389C18.7052 17.1389 17.7143 15.8413 17.7143 14.2399C17.7143 12.6385 18.7052 11.341 19.9286 11.341C21.152 11.341 22.1429 12.6385 22.1429 14.2399C22.1429 15.8413 21.152 17.1389 19.9286 17.1389Z" fill="#474747"/>
</svg>
