<svg width="24" height="25" viewBox="0 0 24 25" fill="none" xmlns="http://www.w3.org/2000/svg">
<path d="M12 0.5C5.373 0.5 0 5.873 0 12.5C0 19.127 5.373 24.5 12 24.5C18.627 24.5 24 19.127 24 12.5C24 5.873 18.627 0.5 12 0.5ZM18.361 16.467L16.493 16.493C16.493 16.493 16.09 16.572 15.563 16.208C14.864 15.728 14.205 14.479 13.691 14.641C13.17 14.807 13.186 15.931 13.186 15.931C13.186 15.931 13.19 16.129 13.071 16.258C12.942 16.397 12.689 16.383 12.689 16.383H11.852C11.852 16.383 10.006 16.536 8.379 14.84C6.607 12.991 5.041 9.342 5.041 9.342C5.041 9.342 4.949 9.112 5.047 8.994C5.158 8.864 5.457 8.86 5.457 8.86L7.457 8.85C7.457 8.85 7.645 8.883 7.781 8.983C7.892 9.065 7.955 9.219 7.955 9.219C7.955 9.219 8.278 10.038 8.707 10.78C9.543 12.226 9.931 12.543 10.215 12.388C10.629 12.162 10.505 10.344 10.505 10.344C10.505 10.344 10.513 9.684 10.297 9.39C10.129 9.161 9.813 9.093 9.675 9.076C9.562 9.061 9.746 8.799 9.986 8.681C10.346 8.505 10.982 8.495 11.733 8.502C12.318 8.508 12.487 8.544 12.715 8.6C13.405 8.767 13.171 9.411 13.171 10.956C13.171 11.451 13.082 12.147 13.438 12.376C13.592 12.475 13.967 12.391 14.902 10.797C15.347 10.041 15.68 9.153 15.68 9.153C15.68 9.153 15.753 8.995 15.866 8.927C15.982 8.857 16.138 8.879 16.138 8.879L18.243 8.866C18.243 8.866 18.875 8.79 18.978 9.077C19.086 9.377 18.742 10.078 17.882 11.225C16.47 13.109 16.313 12.934 17.486 14.024C18.606 15.065 18.837 15.571 18.876 15.635C19.339 16.406 18.361 16.467 18.361 16.467Z" fill="#474747"/>
</svg>
