<svg width="190.000000" height="40.000000" viewBox="0 0 190 40" fill="none" xmlns="http://www.w3.org/2000/svg" xmlns:xlink="http://www.w3.org/1999/xlink">
	<desc>
			Created with Pixso.
	</desc>
	<defs>
		<linearGradient id="paint_linear_24_11_0" x1="-11.473396" y1="77.500031" x2="237.729462" y2="-78.333359" gradientUnits="userSpaceOnUse">
			<stop stop-color="#FC7317"/>
			<stop offset="1.000000" stop-color="#FFDB5A"/>
		</linearGradient>
	</defs>
	<rect id="Прямоугольник 10" rx="7.000000" width="190.000000" height="40.000000" fill="url(#paint_linear_24_11_0)" fill-opacity="1.000000"/>
	<path id="ПРИСОЕДИНИТЬСЯ" d="M18.5273 26L18.5273 25.1367L19.6953 25.0078Q19.7266 24.0312 19.7266 23.0391Q19.7266 22.0469 19.7266 21.0391L19.7266 20.4492Q19.7266 19.457 19.7266 18.457Q19.7266 17.457 19.6953 16.4805L18.5273 16.3516L18.5273 15.4883L29.5508 15.4883L29.5508 16.3516L28.3672 16.4805Q28.3516 17.457 28.3438 18.4492Q28.3359 19.4414 28.3359 20.4492L28.3359 21.0391Q28.3359 22.0156 28.3438 23.0156Q28.3516 24.0156 28.3672 25.0078L29.5508 25.1367L29.5508 26L24.4961 26L24.4961 25.1367L25.6172 25.0234Q25.6484 24.0312 25.6484 23.0391Q25.6484 22.0469 25.6484 21.0234L25.6484 20.4492Q25.6484 19.4414 25.6484 18.4336Q25.6484 17.4258 25.6172 16.418L22.4492 16.418Q22.4336 17.4062 22.4219 18.418Q22.4141 19.4258 22.4141 20.4492L22.4141 21.0234Q22.4141 22.0156 22.4219 23.0234Q22.4336 24.0312 22.4492 25.0234L23.5664 25.1367L23.5664 26L18.5273 26ZM31.8257 21.0391L31.8257 20.4492Q31.8257 19.457 31.8257 18.457Q31.8257 17.457 31.7906 16.4805L30.5913 16.3516L30.5913 15.4883L34.9429 15.4883Q36.607 15.4883 37.6304 15.8828Q38.6577 16.2734 39.1265 16.9844Q39.5992 17.6953 39.5992 18.6562Q39.5992 19.5664 39.1577 20.3281Q38.7202 21.0898 37.7124 21.5391Q36.7046 21.9844 34.9585 21.9844L34.5132 21.9844Q34.5132 22.6719 34.521 23.4336Q34.5288 24.1914 34.5445 24.9922L35.9663 25.1367L35.9663 26L30.5913 26L30.5913 25.1367L31.7906 25.0078Q31.8257 24.0312 31.8257 23.0391Q31.8257 22.0469 31.8257 21.0391ZM34.9117 16.418L34.5445 16.418Q34.5288 17.4062 34.521 18.418Q34.5132 19.4258 34.5132 20.4492L34.5132 21.0898L34.9742 21.0898Q36.0327 21.0898 36.5601 20.4102Q37.0874 19.7266 37.0874 18.6406Q37.0874 17.5352 36.5171 16.9766Q35.9507 16.418 34.9117 16.418ZM46.6065 16.3516L46.6065 15.4883L51.6651 15.4883L51.6651 16.3516L50.4815 16.4805Q50.4659 17.457 50.4542 18.4492Q50.4464 19.4414 50.4464 20.4492L50.4464 21.0391Q50.4464 22.0156 50.4542 23.0156Q50.4659 24.0156 50.4815 25.0078L51.6651 25.1367L51.6651 26L46.6065 26L46.6065 25.1367L47.7901 25.0078Q47.8253 24.0312 47.8253 23.0234Q47.8253 22.0156 47.8253 20.9453L47.8722 18.8477L43.9854 24.2578L43.9698 25.0078L45.2784 25.1367L45.2784 26L40.2393 26L40.2393 25.1367L41.4073 25.0078Q41.4386 24.0312 41.4386 23.0391Q41.4386 22.0469 41.4386 21.0391L41.4386 20.4492Q41.4386 19.457 41.4386 18.4648Q41.4386 17.4727 41.4073 16.4805L40.2393 16.3516L40.2393 15.4883L45.2784 15.4883L45.2784 16.3516L44.0948 16.4805Q44.0792 17.457 44.0714 18.4492Q44.0636 19.4414 44.0636 20.4492L44.0167 22.6562L47.9034 17.2148L47.9347 16.4961L46.6065 16.3516ZM58.4637 25.375Q58.7997 25.375 59.1356 25.2969Q59.4715 25.2148 59.8075 25.0703L60.2567 23.0234L61.4715 23.0234L61.409 25.4883Q60.7684 25.8398 59.9286 26.0703Q59.0887 26.3047 58.0497 26.3047Q56.5106 26.3047 55.245 25.6875Q53.9833 25.0703 53.2372 23.8398Q52.495 22.6094 52.495 20.7344Q52.495 19.3125 52.952 18.2734Q53.409 17.2305 54.1981 16.543Q54.9911 15.8555 56.0145 15.5195Q57.0418 15.1836 58.159 15.1836Q59.0731 15.1836 59.8231 15.3867Q60.577 15.5859 61.2958 15.9844L61.3583 18.4648L60.1434 18.4648L59.6786 16.3672Q59.1356 16.0977 58.5262 16.0977Q57.6786 16.0977 56.952 16.5781Q56.2254 17.0547 55.7762 18.0898Q55.327 19.1211 55.327 20.7539Q55.327 22.3828 55.7567 23.3984Q56.1903 24.4141 56.9012 24.8945Q57.6161 25.375 58.4637 25.375ZM65.167 20.7344Q65.167 22.0625 65.3897 23.1133Q65.6162 24.1602 66.1123 24.7695Q66.6084 25.375 67.4092 25.375Q68.2256 25.375 68.71 24.7695Q69.1983 24.1602 69.4209 23.1133Q69.6475 22.0625 69.6475 20.7344Q69.6475 19.4062 69.4209 18.3672Q69.1983 17.3281 68.71 16.7227Q68.2256 16.1133 67.4092 16.1133Q66.6084 16.1133 66.1123 16.7227Q65.6162 17.3281 65.3897 18.3672Q65.167 19.4062 65.167 20.7344ZM67.4092 15.1836Q68.4014 15.1836 69.3037 15.5273Q70.2061 15.8711 70.9248 16.5586Q71.6475 17.2461 72.0615 18.2969Q72.4795 19.3438 72.4795 20.7344Q72.4795 22.1289 72.0615 23.168Q71.6475 24.207 70.9365 24.9062Q70.2256 25.6016 69.3115 25.9531Q68.4014 26.3047 67.4092 26.3047Q66.417 26.3047 65.5029 25.9609Q64.5928 25.6172 63.8779 24.9219Q63.167 24.2227 62.749 23.1836Q62.335 22.1445 62.335 20.7344Q62.335 19.3594 62.749 18.3203Q63.167 17.2812 63.8858 16.5859Q64.6084 15.8867 65.5186 15.5352Q66.4326 15.1836 67.4092 15.1836ZM74.5617 21.0391L74.5617 20.4492Q74.5617 19.457 74.5617 18.457Q74.5617 17.457 74.5266 16.4805L73.3273 16.3516L73.3273 15.4883L81.4875 15.4883L81.6008 18.2383L80.2727 18.2383L79.9523 16.3828L77.2805 16.3828Q77.2648 17.2969 77.257 18.2266Q77.2492 19.1523 77.2492 20.0977L78.9758 20.0977L79.1672 18.8477L80.0969 18.8477L80.0969 22.2891L79.1672 22.2891L78.9758 21.0391L77.2492 21.0391Q77.2492 22.1445 77.257 23.1367Q77.2648 24.1289 77.2805 25.1055L80.2727 25.1055L80.593 23.2461L81.9211 23.2461L81.8078 26L73.3273 26L73.3273 25.1367L74.5266 25.0078Q74.5617 24.0312 74.5617 23.0391Q74.5617 22.0469 74.5617 21.0391ZM89.1677 20.4648Q89.1677 19.4414 89.1677 18.4258Q89.1677 17.4062 89.1364 16.4336L87.2653 16.4336Q87.0544 19.4727 86.3591 21.6484Q85.6638 23.8242 84.7536 25.0547L89.1364 25.0547Q89.1677 24.0469 89.1677 23.0391Q89.1677 22.0312 89.1677 21.0391L89.1677 20.4648ZM83.3122 25.0547Q84.4489 23.9023 85.2302 21.8008Q86.0153 19.6953 86.2224 16.543L84.863 16.3516L84.863 15.4883L93.0544 15.4883L93.0544 16.3516L91.8708 16.4805Q91.8552 17.457 91.8474 18.457Q91.8395 19.457 91.8395 20.4492L91.8395 21.0391Q91.8395 22.0625 91.8474 23.0625Q91.8552 24.0625 91.8708 25.0547L93.4567 25.0547L93.4099 28.9922L92.1599 28.9922L91.7263 26L84.113 26L83.6638 28.9922L82.4333 28.9922L82.3825 25.0547L83.3122 25.0547ZM100.655 16.3516L100.655 15.4883L105.713 15.4883L105.713 16.3516L104.53 16.4805Q104.514 17.457 104.502 18.4492Q104.494 19.4414 104.494 20.4492L104.494 21.0391Q104.494 22.0156 104.502 23.0156Q104.514 24.0156 104.53 25.0078L105.713 25.1367L105.713 26L100.655 26L100.655 25.1367L101.838 25.0078Q101.873 24.0312 101.873 23.0234Q101.873 22.0156 101.873 20.9453L101.92 18.8477L98.0334 24.2578L98.0178 25.0078L99.3264 25.1367L99.3264 26L94.2874 26L94.2874 25.1367L95.4553 25.0078Q95.4866 24.0312 95.4866 23.0391Q95.4866 22.0469 95.4866 21.0391L95.4866 20.4492Q95.4866 19.457 95.4866 18.4648Q95.4866 17.4727 95.4553 16.4805L94.2874 16.3516L94.2874 15.4883L99.3264 15.4883L99.3264 16.3516L98.1428 16.4805Q98.1272 17.457 98.1194 18.4492Q98.1116 19.4414 98.1116 20.4492L98.0647 22.6562L101.951 17.2148L101.983 16.4961L100.655 16.3516ZM107.951 21.0391L107.951 20.4492Q107.951 19.457 107.951 18.4648Q107.951 17.4727 107.919 16.4805L106.751 16.3516L106.751 15.4883L111.79 15.4883L111.79 16.3516L110.673 16.4648Q110.658 17.4414 110.646 18.4023Q110.638 19.3594 110.638 20.1289L114.048 20.1289Q114.048 19.2148 114.048 18.2969Q114.048 17.375 114.017 16.4648L112.896 16.3516L112.896 15.4883L117.951 15.4883L117.951 16.3516L116.767 16.4805Q116.751 17.457 116.744 18.4492Q116.736 19.4414 116.736 20.4492L116.736 21.0391Q116.736 22.0156 116.744 23.0156Q116.751 24.0156 116.767 25.0078L117.951 25.1367L117.951 26L112.896 26L112.896 25.1367L114.017 25.0234Q114.048 24.0312 114.048 23.0391Q114.048 22.0469 114.048 21.0703L110.638 21.0703Q110.638 22.1445 110.646 23.1133Q110.658 24.0781 110.673 25.0234L111.79 25.1367L111.79 26L106.751 26L106.751 25.1367L107.919 25.0078Q107.951 24.0312 107.951 23.0391Q107.951 22.0469 107.951 21.0391ZM125.359 16.3516L125.359 15.4883L130.417 15.4883L130.417 16.3516L129.234 16.4805Q129.218 17.457 129.206 18.4492Q129.198 19.4414 129.198 20.4492L129.198 21.0391Q129.198 22.0156 129.206 23.0156Q129.218 24.0156 129.234 25.0078L130.417 25.1367L130.417 26L125.359 26L125.359 25.1367L126.542 25.0078Q126.577 24.0312 126.577 23.0234Q126.577 22.0156 126.577 20.9453L126.624 18.8477L122.737 24.2578L122.722 25.0078L124.03 25.1367L124.03 26L118.991 26L118.991 25.1367L120.159 25.0078Q120.191 24.0312 120.191 23.0391Q120.191 22.0469 120.191 21.0391L120.191 20.4492Q120.191 19.457 120.191 18.4648Q120.191 17.4727 120.159 16.4805L118.991 16.3516L118.991 15.4883L124.03 15.4883L124.03 16.3516L122.847 16.4805Q122.831 17.457 122.823 18.4492Q122.816 19.4414 122.816 20.4492L122.769 22.6562L126.655 17.2148L126.687 16.4961L125.359 16.3516ZM134.655 21.0391L134.655 20.4492Q134.655 19.4414 134.655 18.4258Q134.655 17.4062 134.623 16.3828L132.881 16.3828L132.576 18.4648L131.248 18.4648L131.311 15.4883L140.705 15.4883L140.752 18.4648L139.424 18.4648L139.135 16.3828L137.377 16.3828Q137.362 17.375 137.35 18.3906Q137.342 19.4062 137.342 20.4492L137.342 21.0234Q137.342 22.0156 137.35 23.0078Q137.362 24 137.377 24.9922L138.752 25.1367L138.752 26L133.264 26L133.264 25.1367L134.623 24.9922Q134.655 24.0156 134.655 23.0234Q134.655 22.0312 134.655 21.0391ZM141.599 16.3516L141.599 15.4883L146.799 15.4883L146.799 16.3516L145.521 16.4805Q145.506 17.3125 145.494 18.1055Q145.486 18.8945 145.486 19.6016Q145.806 19.5859 146.135 19.5781Q146.463 19.5664 146.799 19.5664Q148.24 19.5664 149.119 20.0078Q150.002 20.4492 150.408 21.1602Q150.814 21.8711 150.814 22.6875Q150.814 23.2812 150.607 23.8672Q150.4 24.4492 149.881 24.9297Q149.361 25.4062 148.424 25.7031Q147.486 26 146.033 26L141.599 26L141.599 25.1367L142.767 25.0078Q142.799 24.0312 142.799 23.0391Q142.799 22.0469 142.799 21.0391L142.799 20.4492Q142.799 19.457 142.799 18.4648Q142.799 17.4727 142.767 16.4805L141.599 16.3516ZM145.486 21.0234Q145.486 22.0469 145.494 23.0547Q145.506 24.0625 145.521 25.0703L145.951 25.0703Q146.994 25.0703 147.584 24.4805Q148.177 23.8867 148.177 22.7695Q148.177 21.6328 147.662 21.0664Q147.15 20.4961 146.017 20.4961Q145.888 20.4961 145.752 20.4961Q145.615 20.4961 145.486 20.5117L145.486 21.0234ZM157.584 25.375Q157.92 25.375 158.256 25.2969Q158.592 25.2148 158.927 25.0703L159.377 23.0234L160.592 23.0234L160.529 25.4883Q159.888 25.8398 159.049 26.0703Q158.209 26.3047 157.17 26.3047Q155.631 26.3047 154.365 25.6875Q153.103 25.0703 152.357 23.8398Q151.615 22.6094 151.615 20.7344Q151.615 19.3125 152.072 18.2734Q152.529 17.2305 153.318 16.543Q154.111 15.8555 155.135 15.5195Q156.162 15.1836 157.279 15.1836Q158.193 15.1836 158.943 15.3867Q159.697 15.5859 160.416 15.9844L160.478 18.4648L159.263 18.4648L158.799 16.3672Q158.256 16.0977 157.646 16.0977Q156.799 16.0977 156.072 16.5781Q155.345 17.0547 154.896 18.0898Q154.447 19.1211 154.447 20.7539Q154.447 22.3828 154.877 23.3984Q155.31 24.4141 156.021 24.8945Q156.736 25.375 157.584 25.375ZM161.024 26L161.024 25.1367L162.161 25.0078L162.848 23.0391Q163.137 22.1914 163.551 21.6953Q163.969 21.1992 164.911 20.9609Q163.422 20.6562 162.829 19.9531Q162.239 19.2461 162.239 18.3516Q162.239 17.0547 163.247 16.2734Q164.254 15.4883 166.192 15.4883L171.422 15.4883L171.422 16.3516L170.223 16.4805Q170.208 17.457 170.2 18.457Q170.192 19.457 170.192 20.4492L170.192 21.0391Q170.192 22.0469 170.2 23.0391Q170.208 24.0312 170.223 25.0078L171.422 25.1367L171.422 26L166.368 26L166.368 25.1367L167.52 25.0078Q167.551 24.0156 167.551 23.0586Q167.551 22.0977 167.551 21.3125L166.926 21.3125Q166.45 21.3125 166.2 21.4727Q165.954 21.6328 165.801 21.9844Q165.649 22.3359 165.438 22.9102L164.704 24.8477Q164.528 25.3125 164.329 25.6094Q164.129 25.9023 163.794 26.0312Q163.458 26.1602 162.848 26.1602Q162.29 26.1602 161.887 26.1172Q161.489 26.0781 161.024 26ZM166.895 20.4141L167.551 20.4141Q167.551 19.3125 167.551 18.3359Q167.551 17.3594 167.52 16.418L166.801 16.418Q165.809 16.418 165.337 16.9453Q164.864 17.4727 164.864 18.3203Q164.864 20.4141 166.895 20.4141Z" fill="#FFFFFF" fill-opacity="1.000000" fill-rule="evenodd"/>
</svg>
