<svg width="49.000000" height="50.000000" viewBox="0 0 49 50" fill="none" xmlns="http://www.w3.org/2000/svg" xmlns:xlink="http://www.w3.org/1999/xlink">
	<desc>
			Created with Pixso.
	</desc>
	<defs>
		<filter id="filter_96_176_dd" x="9.296387" y="18.680176" width="30.191772" height="21.319824" filterUnits="userSpaceOnUse" color-interpolation-filters="sRGB">
			<feFlood flood-opacity="0" result="BackgroundImageFix"/>
			<feColorMatrix in="SourceAlpha" type="matrix" values="0 0 0 0 0 0 0 0 0 0 0 0 0 0 0 0 0 0 127 0" result="hardAlpha"/>
			<feOffset dx="0" dy="4"/>
			<feGaussianBlur stdDeviation="1.33333"/>
			<feComposite in2="hardAlpha" operator="out" k2="-1" k3="1"/>
			<feColorMatrix type="matrix" values="0 0 0 0 0 0 0 0 0 0 0 0 0 0 0 0 0 0 0.25 0"/>
			<feBlend mode="normal" in2="BackgroundImageFix" result="effect_dropShadow_1"/>
			<feBlend mode="normal" in="SourceGraphic" in2="effect_dropShadow_1" result="shape"/>
		</filter>
	</defs>
	<g filter="url(#filter_96_176_dd)">
		<path id="EN" d="M13.29 18.68L13.29 32L22.31 32L22.31 29.87L15.74 29.87L15.74 26.25L21.41 26.25L21.41 24.18L15.74 24.18L15.74 20.8L22.22 20.8L22.22 18.68L13.29 18.68ZM24.7 18.68L24.7 32L27.13 32L27.13 23.12L33.26 32L35.48 32L35.48 18.68L33.05 18.68L33.05 27.71L26.94 18.68L24.7 18.68Z" fill="#BBBDC0" fill-opacity="1.000000" fill-rule="evenodd"/>
	</g>
	<ellipse id="Эллипс 2" cx="24.500000" cy="25.000000" rx="24.500000" ry="25.000000" fill="#BBBDC0" fill-opacity="0"/>
	<ellipse id="Эллипс 2" cx="24.500000" cy="25.000000" rx="23.000000" ry="23.500000" stroke="#BBBDC0" stroke-opacity="1.000000" stroke-width="3.000000"/>
</svg>
