<svg width="28" height="25" viewBox="0 0 28 25" fill="none" xmlns="http://www.w3.org/2000/svg">
<path d="M27.4713 0.82993C26.9936 0.448329 26.2435 0.393729 25.4678 0.687129H25.4665C24.6508 0.99553 2.3746 9.99796 1.46776 10.3658C1.30282 10.4198 -0.137676 10.9262 0.0107043 12.0542C0.143164 13.0712 1.30091 13.4924 1.44229 13.541L7.10558 15.368C7.4813 16.5464 8.8664 20.894 9.17271 21.8228C9.36376 22.4018 9.67517 23.1626 10.2209 23.3192C10.6998 23.4932 11.1762 23.3342 11.4844 23.1062L14.9468 20.0804L20.5362 24.1874L20.6693 24.2624C21.0489 24.4208 21.4125 24.5 21.7596 24.5C22.0277 24.5 22.285 24.4526 22.5308 24.3578C23.3682 24.0338 23.7032 23.282 23.7382 23.1968L27.9132 2.75054C28.1679 1.65853 27.8139 1.10293 27.4713 0.82993ZM12.1002 16.0988L10.1897 20.8988L8.27925 14.8988L22.9262 4.69874L12.1002 16.0988Z" fill="#474747"/>
</svg>
