<svg width="18" height="18" viewBox="0 0 18 18" fill="none" xmlns="http://www.w3.org/2000/svg">
<path d="M6.70839 17.3337L6.37506 14.667C6.19451 14.5975 6.02437 14.5142 5.86464 14.417C5.70492 14.3198 5.54867 14.2156 5.39589 14.1045L2.91673 15.1462L0.625061 11.1878L2.77089 9.56282C2.75701 9.4656 2.75006 9.37185 2.75006 9.28157V8.71907C2.75006 8.6288 2.75701 8.53505 2.77089 8.43782L0.625061 6.81282L2.91673 2.85449L5.39589 3.89616C5.54867 3.78505 5.70839 3.68088 5.87506 3.58366C6.04173 3.48644 6.20839 3.4031 6.37506 3.33366L6.70839 0.666992H11.2917L11.6251 3.33366C11.8056 3.4031 11.9758 3.48644 12.1355 3.58366C12.2952 3.68088 12.4514 3.78505 12.6042 3.89616L15.0834 2.85449L17.3751 6.81282L15.2292 8.43782C15.2431 8.53505 15.2501 8.6288 15.2501 8.71907V9.28157C15.2501 9.37185 15.2362 9.4656 15.2084 9.56282L17.3542 11.1878L15.0626 15.1462L12.6042 14.1045C12.4514 14.2156 12.2917 14.3198 12.1251 14.417C11.9584 14.5142 11.7917 14.5975 11.6251 14.667L11.2917 17.3337H6.70839ZM9.04173 11.917C9.84728 11.917 10.5348 11.6323 11.1042 11.0628C11.6737 10.4934 11.9584 9.80588 11.9584 9.00032C11.9584 8.19477 11.6737 7.50727 11.1042 6.93782C10.5348 6.36838 9.84728 6.08366 9.04173 6.08366C8.22228 6.08366 7.53131 6.36838 6.96881 6.93782C6.40631 7.50727 6.12506 8.19477 6.12506 9.00032C6.12506 9.80588 6.40631 10.4934 6.96881 11.0628C7.53131 11.6323 8.22228 11.917 9.04173 11.917Z" fill="white"/>
</svg>
