<svg width="336" height="80" viewBox="0 0 336 80" fill="none" xmlns="http://www.w3.org/2000/svg">
<g filter="url(#filter0_d_58_10)">
<rect x="8" y="4" width="320" height="64" rx="31" fill="url(#paint0_linear_58_10)"/>
<rect x="9.5" y="5.5" width="317" height="61" rx="29.5" stroke="#DCEBFC" stroke-width="3"/>
</g>
<path d="M72.7043 27.6612C70.0206 25.4023 65.7769 25.0197 65.5975 25.0034C65.3141 24.9779 65.0451 25.1461 64.9288 25.4174C64.9244 25.4267 64.6875 26.1468 64.4583 26.8414C67.5771 27.4131 69.6962 28.6816 69.8091 28.7512C70.3383 29.0736 70.5155 29.7844 70.2066 30.3375C70.0017 30.7063 69.6309 30.9127 69.25 30.9127C69.0607 30.9127 68.8702 30.8628 68.6953 30.7562C68.6643 30.7364 65.5555 28.8834 61.5022 28.8834C57.4479 28.8834 54.3379 30.7376 54.3069 30.7562C53.7788 31.0774 53.1012 30.8883 52.7945 30.3341C52.4879 29.7821 52.6661 29.0736 53.1931 28.7512C53.306 28.6816 55.4329 27.4084 58.5605 26.8379C58.3192 26.1352 58.0756 25.4267 58.0712 25.4174C57.9549 25.1449 57.6859 24.9733 57.4025 25.0034C57.2231 25.0185 52.9794 25.4012 50.2603 27.6914C48.8387 29.0666 46 37.1072 46 44.059C46 44.1819 46.0299 44.3013 46.0886 44.408C48.0493 48.0143 53.3946 48.9583 54.6125 48.9988C54.6202 49 54.6269 49 54.6335 49C54.8483 49 55.0509 48.8922 55.1782 48.7101L56.4957 46.8408C53.6061 46.1115 52.0782 44.9646 51.9863 44.8939C51.4948 44.5147 51.3885 43.7888 51.7505 43.2728C52.1114 42.7591 52.8023 42.6454 53.2939 43.0223C53.3348 43.0501 56.1547 45.1177 61.5 45.1177C66.8663 45.1177 69.6785 43.042 69.7061 43.0211C70.1977 42.6478 70.8908 42.7602 71.2506 43.2774C71.6093 43.7923 71.5052 44.5135 71.0159 44.8916C70.924 44.9623 69.4039 46.1068 66.5209 46.8362L67.8218 48.7089C67.9491 48.8922 68.1517 48.9988 68.3665 48.9988C68.3742 48.9988 68.3809 48.9988 68.3875 48.9977C69.6065 48.9571 74.9518 48.0132 76.9114 44.4069C76.9701 44.3002 77 44.1807 77 44.0578C77 37.1072 74.1613 29.0666 72.7043 27.6612ZM57.0714 41.6389C55.848 41.6389 54.8571 40.3413 54.8571 38.7399C54.8571 37.1385 55.848 35.841 57.0714 35.841C58.2948 35.841 59.2857 37.1385 59.2857 38.7399C59.2857 40.3413 58.2948 41.6389 57.0714 41.6389ZM65.9286 41.6389C64.7052 41.6389 63.7143 40.3413 63.7143 38.7399C63.7143 37.1385 64.7052 35.841 65.9286 35.841C67.152 35.841 68.1429 37.1385 68.1429 38.7399C68.1429 40.3413 67.152 41.6389 65.9286 41.6389Z" fill="white"/>
<path d="M106.187 45V34.4C106.187 33.8 106.1 33.32 105.927 32.96C105.767 32.5867 105.387 32.4 104.787 32.4H104.587V31.8H116.587V45H113.987V32.7H108.787V45H106.187ZM119.976 45V34.4C119.976 33.8 119.89 33.32 119.716 32.96C119.556 32.5867 119.176 32.4 118.576 32.4H118.376V31.8H123.876C124.236 31.8 124.65 31.8267 125.116 31.88C125.583 31.92 126.056 32.0133 126.536 32.16C127.03 32.3067 127.483 32.5267 127.896 32.82C128.31 33.1133 128.643 33.5067 128.896 34C129.15 34.48 129.276 35.0867 129.276 35.82C129.276 36.5133 129.15 37.0933 128.896 37.56C128.643 38.0133 128.316 38.38 127.916 38.66C127.53 38.94 127.116 39.1533 126.676 39.3C126.236 39.4467 125.816 39.5467 125.416 39.6C125.03 39.64 124.716 39.66 124.476 39.66H122.576V45H119.976ZM122.576 38.86H123.776C124.123 38.86 124.456 38.8133 124.776 38.72C125.096 38.6267 125.383 38.46 125.636 38.22C125.89 37.98 126.09 37.66 126.236 37.26C126.396 36.8467 126.476 36.3333 126.476 35.72C126.476 35.1067 126.396 34.6 126.236 34.2C126.09 33.7867 125.89 33.4667 125.636 33.24C125.396 33 125.123 32.8333 124.816 32.74C124.51 32.6467 124.196 32.6 123.876 32.6C123.73 32.6 123.55 32.6067 123.336 32.62C123.136 32.6333 122.883 32.6733 122.576 32.74V38.86ZM131.519 45V34.4C131.519 33.8 131.432 33.32 131.259 32.96C131.099 32.5867 130.719 32.4 130.119 32.4H129.919V31.8H132.319C132.786 31.8 133.146 31.88 133.399 32.04C133.666 32.2 133.852 32.4667 133.959 32.84C134.066 33.2133 134.119 33.7333 134.119 34.4V42.4L139.919 31.8H142.319V45H139.719V34.4L133.919 45H131.519ZM151.139 45.4C149.739 45.4 148.545 45.1 147.559 44.5C146.572 43.9 145.819 43.0867 145.299 42.06C144.792 41.0333 144.539 39.88 144.539 38.6C144.539 37.5867 144.699 36.6467 145.019 35.78C145.352 34.9 145.819 34.1333 146.419 33.48C147.019 32.8267 147.719 32.32 148.519 31.96C149.319 31.5867 150.192 31.4 151.139 31.4C152.392 31.4 153.399 31.5667 154.159 31.9C154.932 32.22 155.505 32.5933 155.879 33.02C156.145 33.3667 156.299 33.8133 156.339 34.36C156.379 34.9067 156.399 35.4733 156.399 36.06H155.799C155.545 34.8467 155.079 33.92 154.399 33.28C153.732 32.6267 152.845 32.3 151.739 32.3C150.925 32.3 150.185 32.4867 149.519 32.86C148.852 33.2333 148.319 33.88 147.919 34.8C147.532 35.7067 147.339 36.9733 147.339 38.6C147.339 39.36 147.419 40.0933 147.579 40.8C147.739 41.5067 147.992 42.14 148.339 42.7C148.699 43.26 149.152 43.7 149.699 44.02C150.259 44.34 150.939 44.5 151.739 44.5C152.659 44.5 153.512 44.26 154.299 43.78C155.085 43.2867 155.719 42.5733 156.199 41.64L156.899 42.18C156.272 43.2867 155.505 44.1 154.599 44.62C153.692 45.14 152.539 45.4 151.139 45.4ZM164.713 45.4C163.393 45.4 162.233 45.0933 161.233 44.48C160.246 43.8533 159.48 43.0133 158.933 41.96C158.386 40.9067 158.113 39.72 158.113 38.4C158.113 37.08 158.386 35.8933 158.933 34.84C159.48 33.7867 160.246 32.9533 161.233 32.34C162.233 31.7133 163.393 31.4 164.713 31.4C166.046 31.4 167.2 31.7133 168.173 32.34C169.16 32.9533 169.926 33.7867 170.473 34.84C171.02 35.8933 171.293 37.08 171.293 38.4C171.293 39.72 171.02 40.9067 170.473 41.96C169.926 43.0133 169.16 43.8533 168.173 44.48C167.2 45.0933 166.046 45.4 164.713 45.4ZM164.713 44.5C165.526 44.5 166.213 44.2667 166.773 43.8C167.346 43.32 167.78 42.6267 168.073 41.72C168.38 40.8 168.533 39.6933 168.533 38.4C168.533 37.0933 168.38 35.9867 168.073 35.08C167.78 34.1733 167.346 33.4867 166.773 33.02C166.213 32.54 165.526 32.3 164.713 32.3C163.913 32.3 163.226 32.54 162.653 33.02C162.093 33.4867 161.66 34.1733 161.353 35.08C161.06 35.9867 160.913 37.0933 160.913 38.4C160.913 39.6933 161.06 40.8 161.353 41.72C161.66 42.6267 162.093 43.32 162.653 43.8C163.226 44.2667 163.913 44.5 164.713 44.5ZM173.824 45V34.4C173.824 33.8 173.737 33.32 173.564 32.96C173.404 32.5867 173.024 32.4 172.424 32.4H172.224V31.8H181.044C181.51 31.8 181.864 31.88 182.104 32.04C182.344 32.1867 182.51 32.3867 182.604 32.64C182.697 32.88 182.744 33.1333 182.744 33.4V35.1H182.144C182.144 34.2467 181.924 33.6333 181.484 33.26C181.057 32.8867 180.444 32.7 179.644 32.7H176.424V37.7H181.624V38.6H176.424V44.1H179.844C180.577 44.1 181.197 43.94 181.704 43.62C182.224 43.2867 182.657 42.6867 183.004 41.82L183.544 42.02L182.964 43.6C182.817 44.0267 182.624 44.3667 182.384 44.62C182.157 44.8733 181.77 45 181.224 45H173.824ZM183.896 48.68V44.8C183.896 44.6 183.963 44.4333 184.096 44.3C184.229 44.1667 184.396 44.1 184.596 44.1H185.296C185.949 42.6867 186.396 41.1733 186.636 39.56C186.876 37.9333 186.996 36.2133 186.996 34.4C186.996 33.8 186.909 33.32 186.736 32.96C186.576 32.5867 186.196 32.4 185.596 32.4H185.396V31.8H195.976V44.1H196.676C196.876 44.1 197.043 44.1667 197.176 44.3C197.309 44.4333 197.376 44.6 197.376 44.8V48.68H196.376C196.269 47.72 196.109 46.9733 195.896 46.44C195.696 45.9067 195.429 45.5333 195.096 45.32C194.763 45.1067 194.356 45 193.876 45H187.396C186.916 45 186.509 45.1067 186.176 45.32C185.843 45.5333 185.569 45.9067 185.356 46.44C185.156 46.9733 185.003 47.72 184.896 48.68H183.896ZM187.376 44.1H193.376V32.7H188.976C188.976 34.5133 188.923 36.1067 188.816 37.48C188.723 38.84 188.556 40.0533 188.316 41.12C188.089 42.1867 187.776 43.18 187.376 44.1ZM199.703 45V34.4C199.703 33.8 199.616 33.32 199.443 32.96C199.283 32.5867 198.903 32.4 198.303 32.4H198.103V31.8H200.503C200.969 31.8 201.329 31.88 201.583 32.04C201.849 32.2 202.036 32.4667 202.143 32.84C202.249 33.2133 202.303 33.7333 202.303 34.4V42.4L208.103 31.8H210.503V45H207.903V34.4L202.103 45H199.703ZM213.882 45V34.4C213.882 33.8 213.796 33.32 213.622 32.96C213.462 32.5867 213.082 32.4 212.482 32.4H212.282V31.8H214.682C215.149 31.8 215.509 31.88 215.762 32.04C216.029 32.2 216.216 32.4667 216.322 32.84C216.429 33.2133 216.482 33.7333 216.482 34.4V37.7H221.882V31.8H224.482V42.4C224.482 43 224.562 43.4867 224.722 43.86C224.896 44.22 225.282 44.4 225.882 44.4H226.082V45H223.682C223.216 45 222.849 44.9267 222.582 44.78C222.329 44.62 222.149 44.3533 222.042 43.98C221.936 43.5933 221.882 43.0667 221.882 42.4V38.6H216.482V45H213.882ZM228.277 45V34.4C228.277 33.8 228.19 33.32 228.017 32.96C227.857 32.5867 227.477 32.4 226.877 32.4H226.677V31.8H229.077C229.544 31.8 229.904 31.88 230.157 32.04C230.424 32.2 230.61 32.4667 230.717 32.84C230.824 33.2133 230.877 33.7333 230.877 34.4V42.4L236.677 31.8H239.077V45H236.477V34.4L230.677 45H228.277ZM245.197 45V32.7H243.777C243.07 32.7 242.51 32.88 242.097 33.24C241.683 33.5867 241.477 34.2067 241.477 35.1H240.877V33.4C240.877 33.1333 240.923 32.88 241.017 32.64C241.11 32.3867 241.277 32.1867 241.517 32.04C241.77 31.88 242.123 31.8 242.577 31.8H251.977V32.7H247.797V45H245.197ZM253.961 45V34.4C253.961 33.8 253.874 33.32 253.701 32.96C253.541 32.5867 253.161 32.4 252.561 32.4H252.361V31.8H254.761C255.227 31.8 255.587 31.88 255.841 32.04C256.107 32.2 256.294 32.4667 256.401 32.84C256.507 33.2133 256.561 33.7333 256.561 34.4V37.2H258.361C259.081 37.2 259.787 37.26 260.481 37.38C261.187 37.4867 261.821 37.6867 262.381 37.98C262.954 38.2733 263.407 38.6733 263.741 39.18C264.087 39.6733 264.261 40.3133 264.261 41.1C264.261 41.8733 264.087 42.5133 263.741 43.02C263.407 43.5267 262.954 43.9267 262.381 44.22C261.821 44.5133 261.187 44.72 260.481 44.84C259.787 44.9467 259.081 45 258.361 45H253.961ZM258.061 44.2C259.261 44.2 260.127 43.9333 260.661 43.4C261.194 42.8667 261.461 42.1 261.461 41.1C261.461 40.1 261.194 39.3333 260.661 38.8C260.127 38.2667 259.261 38 258.061 38C257.767 38 257.521 38.02 257.321 38.06C257.121 38.0867 256.867 38.1333 256.561 38.2V44C256.707 44.04 256.914 44.0867 257.181 44.14C257.447 44.18 257.741 44.2 258.061 44.2ZM271.94 45.4C270.54 45.4 269.346 45.1 268.36 44.5C267.373 43.9 266.62 43.0867 266.1 42.06C265.593 41.0333 265.34 39.88 265.34 38.6C265.34 37.5867 265.5 36.6467 265.82 35.78C266.153 34.9 266.62 34.1333 267.22 33.48C267.82 32.8267 268.52 32.32 269.32 31.96C270.12 31.5867 270.993 31.4 271.94 31.4C273.193 31.4 274.2 31.5667 274.96 31.9C275.733 32.22 276.306 32.5933 276.68 33.02C276.946 33.3667 277.1 33.8133 277.14 34.36C277.18 34.9067 277.2 35.4733 277.2 36.06H276.6C276.346 34.8467 275.88 33.92 275.2 33.28C274.533 32.6267 273.646 32.3 272.54 32.3C271.726 32.3 270.986 32.4867 270.32 32.86C269.653 33.2333 269.12 33.88 268.72 34.8C268.333 35.7067 268.14 36.9733 268.14 38.6C268.14 39.36 268.22 40.0933 268.38 40.8C268.54 41.5067 268.793 42.14 269.14 42.7C269.5 43.26 269.953 43.7 270.5 44.02C271.06 44.34 271.74 44.5 272.54 44.5C273.46 44.5 274.313 44.26 275.1 43.78C275.886 43.2867 276.52 42.5733 277 41.64L277.7 42.18C277.073 43.2867 276.306 44.1 275.4 44.62C274.493 45.14 273.34 45.4 271.94 45.4ZM279.714 45.32C279.46 45.32 279.194 45.3 278.914 45.26C278.647 45.22 278.46 45.1733 278.354 45.12V44.62C278.66 44.5533 279.014 44.38 279.414 44.1C279.827 43.8067 280.3 43.2467 280.834 42.42L282.734 39.4C282.24 39.2933 281.74 39.0933 281.234 38.8C280.74 38.4933 280.327 38.0933 279.994 37.6C279.66 37.0933 279.494 36.4867 279.494 35.78C279.494 35.1267 279.607 34.5733 279.834 34.12C280.074 33.6533 280.387 33.2733 280.774 32.98C281.16 32.6733 281.587 32.4333 282.054 32.26C282.534 32.0867 283.02 31.9667 283.514 31.9C284.007 31.8333 284.467 31.8 284.894 31.8H290.414V32.4H290.214C289.614 32.4 289.227 32.5867 289.054 32.96C288.894 33.32 288.814 33.8 288.814 34.4V45H286.194V39.56H285.314L283.514 42.42C282.834 43.5 282.194 44.2533 281.594 44.68C280.994 45.1067 280.367 45.32 279.714 45.32ZM284.994 38.76C285.14 38.76 285.347 38.76 285.614 38.76C285.894 38.76 286.087 38.76 286.194 38.76V32.74C285.86 32.6733 285.587 32.6333 285.374 32.62C285.174 32.6067 285.014 32.6 284.894 32.6C284.6 32.6 284.3 32.6667 283.994 32.8C283.687 32.92 283.407 33.1067 283.154 33.36C282.9 33.6133 282.694 33.9333 282.534 34.32C282.374 34.7067 282.294 35.16 282.294 35.68C282.294 36.2133 282.374 36.6733 282.534 37.06C282.694 37.4467 282.9 37.7667 283.154 38.02C283.42 38.2733 283.714 38.46 284.034 38.58C284.354 38.7 284.674 38.76 284.994 38.76Z" fill="white"/>
<defs>
<filter id="filter0_d_58_10" x="0.7" y="0.7" width="334.6" height="78.6" filterUnits="userSpaceOnUse" color-interpolation-filters="sRGB">
<feFlood flood-opacity="0" result="BackgroundImageFix"/>
<feColorMatrix in="SourceAlpha" type="matrix" values="0 0 0 0 0 0 0 0 0 0 0 0 0 0 0 0 0 0 127 0" result="hardAlpha"/>
<feOffset dy="4"/>
<feGaussianBlur stdDeviation="3.65"/>
<feComposite in2="hardAlpha" operator="out"/>
<feColorMatrix type="matrix" values="0 0 0 0 0 0 0 0 0 0 0 0 0 0 0 0 0 0 0.25 0"/>
<feBlend mode="normal" in2="BackgroundImageFix" result="effect1_dropShadow_58_10"/>
<feBlend mode="normal" in="SourceGraphic" in2="effect1_dropShadow_58_10" result="shape"/>
</filter>
<linearGradient id="paint0_linear_58_10" x1="168" y1="4" x2="168" y2="68" gradientUnits="userSpaceOnUse">
<stop stop-color="#6189B2"/>
<stop offset="1" stop-color="#6189B2" stop-opacity="0.43"/>
</linearGradient>
</defs>
</svg>
