<svg width="167.000000" height="74.905273" viewBox="0 0 167 74.9053" fill="none" xmlns="http://www.w3.org/2000/svg" xmlns:xlink="http://www.w3.org/1999/xlink">
	<desc>
			Created with Pixso.
	</desc>
	<defs>
		<clipPath id="clip97_149">
			<rect id="Мир" width="28.000000" height="28.000000" transform="translate(96.000000 8.000000)" fill="white" fill-opacity="0"/>
		</clipPath>
		<linearGradient x1="109.999916" y1="10.333496" x2="109.999916" y2="33.666824" id="paint_linear_97_145_0" gradientUnits="userSpaceOnUse">
			<stop stop-color="#FFFFFF"/>
			<stop offset="1.000000" stop-color="#7DC0FF" stop-opacity="0.000000"/>
		</linearGradient>
		<linearGradient x1="104.319962" y1="12.028809" x2="104.319962" y2="23.087849" id="paint_linear_97_146_0" gradientUnits="userSpaceOnUse">
			<stop stop-color="#FFFFFF"/>
			<stop offset="1.000000" stop-color="#7DC0FF" stop-opacity="0.000000"/>
		</linearGradient>
		<linearGradient x1="115.508018" y1="12.666504" x2="115.508018" y2="33.079788" id="paint_linear_97_147_0" gradientUnits="userSpaceOnUse">
			<stop stop-color="#FFFFFF"/>
			<stop offset="1.000000" stop-color="#7DC0FF" stop-opacity="0.000000"/>
		</linearGradient>
		<linearGradient x1="104.602058" y1="25.807129" x2="104.602058" y2="33.602364" id="paint_linear_97_148_0" gradientUnits="userSpaceOnUse">
			<stop stop-color="#FFFFFF"/>
			<stop offset="1.000000" stop-color="#7DC0FF" stop-opacity="0.000000"/>
		</linearGradient>
	</defs>
	<g opacity="0.830000">
		<path id="AION" d="M45.19 35.19Q47.71 36.36 51.03 36.36Q54.37 36.36 56.89 35.19Q59.14 34.14 60.73 32.47Q60.92 32.27 61.1 32.06Q62.01 31 62.67 29.8Q63.25 28.78 63.64 27.65Q64.18 26.09 64.38 24.49Q64.49 23.57 64.49 22.64Q64.49 21.56 64.34 20.5Q64.13 19.06 63.64 17.66Q63.22 16.46 62.6 15.37Q61.96 14.27 61.1 13.28Q60.95 13.11 60.79 12.94Q59.18 11.23 56.89 10.16Q54.37 9 51.03 9Q47.71 9 45.19 10.16Q42.95 11.2 41.34 12.86Q41.14 13.07 40.95 13.28Q40.06 14.3 39.41 15.44Q38.81 16.49 38.4 17.66Q37.92 19.04 37.72 20.46Q37.56 21.54 37.56 22.64Q37.56 23.59 37.68 24.53Q37.88 26.11 38.4 27.65Q38.78 28.74 39.33 29.74Q40.01 30.97 40.95 32.06Q41.17 32.31 41.41 32.55Q42.99 34.17 45.19 35.19ZM10.15 9.36L1.08 36L6.9 36L8.63 30.77L19.08 30.77L20.76 36L26.6 36L17.53 9.36L10.15 9.36ZM29.13 9.36L29.13 36L34.67 36L34.67 9.36L29.13 9.36ZM67.38 9.36L67.38 36L72.88 36L72.88 19.47L84.3 36L89.44 36L89.44 9.36L83.94 9.36L83.94 26.34L72.45 9.36L67.38 9.36ZM54.91 30.34Q53.28 31.35 51.03 31.35Q48.72 31.35 47.09 30.31Q46.94 30.21 46.79 30.1Q46.09 29.58 45.54 28.95Q44.73 28.02 44.21 26.84Q43.82 25.93 43.61 24.97Q43.35 23.83 43.35 22.64Q43.35 21.35 43.65 20.14Q43.86 19.29 44.21 18.47Q44.73 17.3 45.52 16.39Q46.09 15.74 46.79 15.23Q46.95 15.11 47.12 15Q48.74 13.96 51.03 13.96Q53.26 13.96 54.87 14.96Q55.08 15.09 55.27 15.23Q56.06 15.8 56.67 16.53Q57.4 17.39 57.86 18.47Q58.22 19.29 58.43 20.14Q58.72 21.35 58.72 22.64Q58.72 23.83 58.47 24.97Q58.25 25.93 57.86 26.84Q57.39 27.93 56.66 28.8Q56.05 29.52 55.27 30.1Q55.09 30.23 54.91 30.34ZM13.86 14.83L17.53 25.95L10.18 25.95L13.86 14.83Z" fill="#FFFFFF" fill-opacity="1.000000" fill-rule="evenodd"/>
		<path id="WORLD" d="M46.4 65.19Q48.92 66.36 52.23 66.36Q55.58 66.36 58.1 65.19Q60.35 64.14 61.94 62.47Q62.13 62.27 62.31 62.06Q63.22 61 63.88 59.8Q64.46 58.78 64.85 57.65Q65.39 56.09 65.58 54.49Q65.7 53.57 65.7 52.64Q65.7 51.56 65.55 50.5Q65.34 49.06 64.85 47.66Q64.43 46.46 63.8 45.37Q63.16 44.27 62.31 43.28Q62.15 43.11 62 42.94Q60.39 41.23 58.1 40.16Q55.58 39 52.23 39Q48.92 39 46.4 40.16Q44.15 41.2 42.55 42.86Q42.35 43.07 42.16 43.28Q41.27 44.3 40.62 45.44Q40.02 46.49 39.61 47.66Q39.13 49.04 38.93 50.46Q38.77 51.54 38.77 52.64Q38.77 53.59 38.89 54.53Q39.08 56.11 39.61 57.65Q39.99 58.74 40.54 59.74Q41.22 60.97 42.16 62.06Q42.38 62.31 42.62 62.55Q44.2 64.17 46.4 65.19ZM1.01 39.36L7.62 66L14.72 66L19.01 49.04L23.32 66L30.38 66L37.04 39.36L31.46 39.36L26.78 58.65L21.84 39.36L16.19 39.36L11.26 58.69L6.54 39.36L1.01 39.36ZM69.59 39.36L69.59 66L75.12 66L75.12 55.74L79.05 55.74L84.34 66L90.5 66L84.7 54.98Q86.54 54.3 87.75 53.03Q88.15 52.6 88.47 52.12Q88.76 51.7 88.98 51.25Q89.81 49.6 89.81 47.53Q89.81 45.42 88.95 43.76Q88.82 43.52 88.68 43.28Q88.43 42.88 88.13 42.51Q87.08 41.22 85.43 40.4Q83.33 39.36 80.38 39.36L69.59 39.36ZM95.22 39.36L95.22 66L113.79 66L113.79 61.17L100.76 61.17L100.76 39.36L95.22 39.36ZM118.37 39.36L118.37 66L128.44 66Q131.68 66 134.14 64.86Q136.43 63.81 137.99 62.09Q138.11 61.96 138.23 61.82Q139.01 60.9 139.61 59.88Q140.25 58.77 140.68 57.54Q141.2 56.06 141.39 54.54Q141.51 53.61 141.51 52.67Q141.51 51.74 141.39 50.82Q141.2 49.3 140.68 47.82Q140.23 46.53 139.55 45.37Q138.97 44.4 138.23 43.53Q138.11 43.39 137.99 43.26Q136.43 41.54 134.14 40.49Q131.68 39.36 128.44 39.36L118.37 39.36ZM56.11 60.34Q54.49 61.35 52.23 61.35Q49.93 61.35 48.3 60.31Q48.15 60.21 48 60.1Q47.3 59.58 46.75 58.95Q45.94 58.02 45.42 56.84Q45.03 55.93 44.82 54.97Q44.56 53.83 44.56 52.64Q44.56 51.35 44.86 50.14Q45.07 49.29 45.42 48.47Q45.93 47.3 46.73 46.39Q47.29 45.74 48 45.23Q48.16 45.11 48.33 45Q49.95 43.96 52.23 43.96Q54.47 43.96 56.08 44.96Q56.28 45.09 56.48 45.23Q57.27 45.8 57.88 46.53Q58.6 47.39 59.07 48.47Q59.43 49.29 59.64 50.14Q59.93 51.35 59.93 52.64Q59.93 53.83 59.68 54.97Q59.46 55.93 59.07 56.84Q58.6 57.93 57.87 58.8Q57.26 59.52 56.48 60.1Q56.3 60.23 56.11 60.34ZM75.12 44.15L80.31 44.15Q81.9 44.15 82.89 44.91Q83.05 45.03 83.19 45.17Q83.66 45.63 83.91 46.17Q84.24 46.86 84.24 47.71Q84.24 48.48 83.95 49.13Q83.69 49.71 83.19 50.19Q83.07 50.31 82.93 50.42Q81.93 51.2 80.31 51.2L75.12 51.2L75.12 44.15ZM123.9 44.22L128.19 44.22Q130.82 44.22 132.53 45.46Q133.42 46.11 134.08 46.95Q134.68 47.71 135.08 48.63Q135.55 49.69 135.76 50.8Q135.93 51.7 135.93 52.64Q135.93 53.53 135.78 54.39Q135.57 55.55 135.08 56.67Q134.65 57.67 133.99 58.48Q133.36 59.24 132.53 59.84Q130.82 61.06 128.19 61.06L123.9 61.06L123.9 44.22Z" fill="#FFFFFF" fill-opacity="1.000000" fill-rule="evenodd"/>
		<g clip-path="url(#clip97_149)">
			<path id="path" d="M110 33.66C116.44 33.66 121.66 28.44 121.66 22C121.66 15.55 116.44 10.33 110 10.33C103.55 10.33 98.33 15.55 98.33 22C98.33 28.44 103.55 33.66 110 33.66Z" fill="#000000" fill-opacity="0" fill-rule="nonzero"/>
			<path id="path" d="M121.66 22C121.66 15.55 116.44 10.33 110 10.33C103.55 10.33 98.33 15.55 98.33 22C98.33 28.44 103.55 33.66 110 33.66C116.44 33.66 121.66 28.44 121.66 22Z" stroke="url(#paint_linear_97_145_0)" stroke-opacity="1.000000" stroke-width="1.500000"/>
			<path id="path" d="" fill="#000000" fill-opacity="0" fill-rule="nonzero"/>
			<path id="path" d="M98.33 20.15C100.09 19.32 101.39 19.21 102.23 19.8C103.5 20.7 103.65 24.37 106.53 22.62C109.4 20.87 105.3 20.15 106.19 17.62C107.08 15.08 110 17.05 110.29 14.27C110.48 12.42 108.27 11.71 103.65 12.15" stroke="url(#paint_linear_97_146_0)" stroke-opacity="1.000000" stroke-width="1.500000"/>
			<path id="path" d="M116.5 12.12L116.5 12.1C116.82 11.82 117.28 11.85 117.56 12.17C117.84 12.48 117.81 12.95 117.49 13.23L117.46 13.22L116.5 12.12ZM114.14 33.43L114.15 33.46C113.93 33.82 113.48 33.93 113.12 33.72C112.76 33.51 112.64 33.05 112.86 32.69L112.89 32.68L114.14 33.43Z" fill="#000000" fill-opacity="0" fill-rule="nonzero"/>
			<path id="path" d="M117 12.66C113.66 15.57 112.5 17.33 113.5 17.93C115.01 18.84 115.65 17.56 117.49 17.93C119.33 18.3 118.93 20.8 117.96 20.8C117 20.8 111.98 20.16 112.24 23.08C112.49 26.01 115.5 26.44 115.5 28.07C115.5 29.16 114.84 30.83 113.5 33.07" stroke="url(#paint_linear_97_147_0)" stroke-opacity="1.000000" stroke-width="1.500000" stroke-linecap="round"/>
			<path id="path" d="M99.87 27.86L99.86 27.89C99.47 28.06 99.04 27.89 98.87 27.5C98.7 27.12 98.87 26.68 99.26 26.51L99.28 26.52L99.87 27.86ZM109.49 33.92L109.49 33.95C109.3 34.32 108.85 34.46 108.48 34.26C108.11 34.06 107.97 33.62 108.17 33.24L108.2 33.24L109.49 33.92Z" fill="#000000" fill-opacity="0" fill-rule="nonzero"/>
			<path id="path" d="M99.56 27.2C100.09 26.97 100.49 26.8 100.76 26.69C103 25.79 104.66 25.57 105.75 26.05C107.67 26.9 106.93 28.61 107.53 29.24C108.14 29.87 109.64 29.69 109.64 30.89C109.64 31.69 109.37 32.59 108.83 33.6" stroke="url(#paint_linear_97_148_0)" stroke-opacity="1.000000" stroke-width="1.500000" stroke-linecap="round"/>
		</g>
	</g>
</svg>
