<svg width="336" height="80" viewBox="0 0 336 80" fill="none" xmlns="http://www.w3.org/2000/svg">
<g filter="url(#filter0_d_42_26)">
<rect x="8" y="4" width="320" height="64" rx="31" fill="url(#paint0_linear_42_26)"/>
<rect x="9.5" y="5.5" width="317" height="61" rx="29.5" stroke="#DCEBFC" stroke-width="3"/>
</g>
<path d="M77.2822 46.27V45.298C77.8222 45.298 78.3532 45.253 78.8752 45.163C79.3972 45.073 79.8742 44.893 80.3062 44.623C80.7382 44.353 81.0712 43.957 81.3052 43.435L81.4942 43.03L75.9592 31.69C75.7072 31.114 75.4102 30.61 75.0682 30.178C74.7262 29.746 74.3482 29.404 73.9342 29.152C73.5202 28.9 73.0792 28.756 72.6112 28.72V28.18H75.3112C75.9952 28.18 76.6162 28.306 77.1742 28.558C77.7502 28.81 78.2542 29.161 78.6862 29.611C79.1182 30.061 79.4602 30.574 79.7122 31.15L83.4382 38.764L88.2172 28.18H89.9722L83.0602 43.435C82.6822 44.317 82.1152 45.01 81.3592 45.514C80.6212 46.018 79.7122 46.27 78.6322 46.27H77.2822ZM102.532 46V38.98C102.118 39.16 101.596 39.295 100.966 39.385C100.354 39.475 99.7147 39.52 99.0487 39.52C97.9687 39.52 97.0057 39.403 96.1597 39.169C95.3137 38.935 94.6027 38.575 94.0267 38.089C93.4507 37.603 93.0097 36.991 92.7037 36.253C92.4157 35.497 92.2717 34.606 92.2717 33.58V31.69C92.2717 30.88 92.1547 30.232 91.9207 29.746C91.7047 29.242 91.1917 28.99 90.3817 28.99H90.1117V28.18H93.3517C93.9817 28.18 94.4677 28.288 94.8097 28.504C95.1697 28.72 95.4217 29.08 95.5657 29.584C95.7097 30.088 95.7817 30.79 95.7817 31.69V33.85C95.7817 34.84 95.9437 35.668 96.2677 36.334C96.6097 37 97.0597 37.495 97.6177 37.819C98.1937 38.143 98.8417 38.305 99.5617 38.305C100.12 38.305 100.651 38.26 101.155 38.17C101.659 38.062 102.118 37.927 102.532 37.765V28.18H106.042V46H102.532ZM124.998 46.108C124.404 46.108 123.774 46.036 123.108 45.892C122.46 45.73 121.83 45.397 121.218 44.893C120.624 44.389 120.111 43.624 119.679 42.598L119.058 41.086H111.876L109.662 46H108.258L116.223 28.18H117.438L123.486 42.598C123.81 43.39 124.206 44.02 124.674 44.488C125.142 44.956 125.682 45.226 126.294 45.298V45.973C126.15 46.009 125.943 46.036 125.673 46.054C125.421 46.09 125.196 46.108 124.998 46.108ZM112.443 39.871H118.545L115.575 32.824L112.443 39.871ZM134.984 46.54C133.094 46.54 131.483 46.135 130.151 45.325C128.819 44.515 127.802 43.417 127.1 42.031C126.416 40.645 126.074 39.088 126.074 37.36C126.074 35.992 126.29 34.723 126.722 33.553C127.172 32.365 127.802 31.33 128.612 30.448C129.422 29.566 130.367 28.882 131.447 28.396C132.527 27.892 133.706 27.64 134.984 27.64C136.676 27.64 138.035 27.865 139.061 28.315C140.105 28.747 140.879 29.251 141.383 29.827C141.743 30.295 141.95 30.898 142.004 31.636C142.058 32.374 142.085 33.139 142.085 33.931H141.275C140.933 32.293 140.303 31.042 139.385 30.178C138.485 29.296 137.288 28.855 135.794 28.855C134.696 28.855 133.697 29.107 132.797 29.611C131.897 30.115 131.177 30.988 130.637 32.23C130.115 33.454 129.854 35.164 129.854 37.36C129.854 38.386 129.962 39.376 130.178 40.33C130.394 41.284 130.736 42.139 131.204 42.895C131.69 43.651 132.302 44.245 133.04 44.677C133.796 45.109 134.714 45.325 135.794 45.325C137.036 45.325 138.188 45.001 139.25 44.353C140.312 43.687 141.167 42.724 141.815 41.464L142.76 42.193C141.914 43.687 140.879 44.785 139.655 45.487C138.431 46.189 136.874 46.54 134.984 46.54ZM149.664 46V29.395H147.747C146.793 29.395 146.037 29.638 145.479 30.124C144.921 30.592 144.642 31.429 144.642 32.635H143.832V30.34C143.832 29.98 143.895 29.638 144.021 29.314C144.147 28.972 144.372 28.702 144.696 28.504C145.038 28.288 145.515 28.18 146.127 28.18H158.817V29.395H153.174V46H149.664ZM161.496 46V31.69C161.496 30.88 161.379 30.232 161.145 29.746C160.929 29.242 160.416 28.99 159.606 28.99H159.336V28.18H166.626C167.472 28.18 168.354 28.234 169.272 28.342C170.208 28.432 171.072 28.639 171.864 28.963C172.674 29.269 173.331 29.737 173.835 30.367C174.339 30.997 174.591 31.843 174.591 32.905C174.591 33.679 174.276 34.444 173.646 35.2C173.034 35.938 172.098 36.469 170.838 36.793C172.026 36.901 172.944 37.162 173.592 37.576C174.258 37.99 174.726 38.503 174.996 39.115C175.266 39.709 175.401 40.357 175.401 41.059C175.401 42.085 175.167 42.922 174.699 43.57C174.249 44.218 173.637 44.722 172.863 45.082C172.089 45.424 171.225 45.667 170.271 45.811C169.335 45.937 168.39 46 167.436 46H161.496ZM167.031 44.92C168.525 44.92 169.659 44.596 170.433 43.948C171.225 43.3 171.621 42.382 171.621 41.194C171.621 39.952 171.234 39.025 170.46 38.413C169.704 37.783 168.561 37.468 167.031 37.468H165.006V44.65C165.204 44.704 165.483 44.767 165.843 44.839C166.203 44.893 166.599 44.92 167.031 44.92ZM165.006 36.253H167.031C167.769 36.253 168.417 36.145 168.975 35.929C169.551 35.695 170.001 35.326 170.325 34.822C170.649 34.3 170.811 33.616 170.811 32.77C170.811 31.87 170.604 31.168 170.19 30.664C169.794 30.16 169.272 29.8 168.624 29.584C167.994 29.368 167.328 29.26 166.626 29.26C166.428 29.26 166.203 29.269 165.951 29.287C165.717 29.305 165.402 29.359 165.006 29.449V36.253ZM186.216 46.54C184.434 46.54 182.868 46.126 181.518 45.298C180.186 44.452 179.151 43.318 178.413 41.896C177.675 40.474 177.306 38.872 177.306 37.09C177.306 35.308 177.675 33.706 178.413 32.284C179.151 30.862 180.186 29.737 181.518 28.909C182.868 28.063 184.434 27.64 186.216 27.64C188.016 27.64 189.573 28.063 190.887 28.909C192.219 29.737 193.254 30.862 193.992 32.284C194.73 33.706 195.099 35.308 195.099 37.09C195.099 38.872 194.73 40.474 193.992 41.896C193.254 43.318 192.219 44.452 190.887 45.298C189.573 46.126 188.016 46.54 186.216 46.54ZM186.216 45.325C187.314 45.325 188.241 45.01 188.997 44.38C189.771 43.732 190.356 42.796 190.752 41.572C191.166 40.33 191.373 38.836 191.373 37.09C191.373 35.326 191.166 33.832 190.752 32.608C190.356 31.384 189.771 30.457 188.997 29.827C188.241 29.179 187.314 28.855 186.216 28.855C185.136 28.855 184.209 29.179 183.435 29.827C182.679 30.457 182.094 31.384 181.68 32.608C181.284 33.832 181.086 35.326 181.086 37.09C181.086 38.836 181.284 40.33 181.68 41.572C182.094 42.796 182.679 43.732 183.435 44.38C184.209 45.01 185.136 45.325 186.216 45.325ZM198.515 46V31.69C198.515 30.88 198.398 30.232 198.164 29.746C197.948 29.242 197.435 28.99 196.625 28.99H196.355V28.18H203.645C204.491 28.18 205.373 28.234 206.291 28.342C207.227 28.432 208.091 28.639 208.883 28.963C209.693 29.269 210.35 29.737 210.854 30.367C211.358 30.997 211.61 31.843 211.61 32.905C211.61 33.679 211.295 34.444 210.665 35.2C210.053 35.938 209.117 36.469 207.857 36.793C209.045 36.901 209.963 37.162 210.611 37.576C211.277 37.99 211.745 38.503 212.015 39.115C212.285 39.709 212.42 40.357 212.42 41.059C212.42 42.085 212.186 42.922 211.718 43.57C211.268 44.218 210.656 44.722 209.882 45.082C209.108 45.424 208.244 45.667 207.29 45.811C206.354 45.937 205.409 46 204.455 46H198.515ZM204.05 44.92C205.544 44.92 206.678 44.596 207.452 43.948C208.244 43.3 208.64 42.382 208.64 41.194C208.64 39.952 208.253 39.025 207.479 38.413C206.723 37.783 205.58 37.468 204.05 37.468H202.025V44.65C202.223 44.704 202.502 44.767 202.862 44.839C203.222 44.893 203.618 44.92 204.05 44.92ZM202.025 36.253H204.05C204.788 36.253 205.436 36.145 205.994 35.929C206.57 35.695 207.02 35.326 207.344 34.822C207.668 34.3 207.83 33.616 207.83 32.77C207.83 31.87 207.623 31.168 207.209 30.664C206.813 30.16 206.291 29.8 205.643 29.584C205.013 29.368 204.347 29.26 203.645 29.26C203.447 29.26 203.222 29.269 202.97 29.287C202.736 29.305 202.421 29.359 202.025 29.449V36.253ZM230.124 46.108C229.53 46.108 228.9 46.036 228.234 45.892C227.586 45.73 226.956 45.397 226.344 44.893C225.75 44.389 225.237 43.624 224.805 42.598L224.184 41.086H217.002L214.788 46H213.384L221.349 28.18H222.564L228.612 42.598C228.936 43.39 229.332 44.02 229.8 44.488C230.268 44.956 230.808 45.226 231.42 45.298V45.973C231.276 46.009 231.069 46.036 230.799 46.054C230.547 46.09 230.322 46.108 230.124 46.108ZM217.569 39.871H223.671L220.701 32.824L217.569 39.871ZM235.358 46V29.395H233.441C232.487 29.395 231.731 29.638 231.173 30.124C230.615 30.592 230.336 31.429 230.336 32.635H229.526V30.34C229.526 29.98 229.589 29.638 229.715 29.314C229.841 28.972 230.066 28.702 230.39 28.504C230.732 28.288 231.209 28.18 231.821 28.18H244.511V29.395H238.868V46H235.358ZM247.189 46V31.69C247.189 30.88 247.072 30.232 246.838 29.746C246.622 29.242 246.109 28.99 245.299 28.99H245.029V28.18H248.269C248.899 28.18 249.385 28.288 249.727 28.504C250.087 28.72 250.339 29.08 250.483 29.584C250.627 30.088 250.699 30.79 250.699 31.69V35.47H253.129C254.101 35.47 255.055 35.551 255.991 35.713C256.945 35.857 257.8 36.127 258.556 36.523C259.33 36.919 259.942 37.459 260.392 38.143C260.86 38.809 261.094 39.673 261.094 40.735C261.094 41.779 260.86 42.643 260.392 43.327C259.942 44.011 259.33 44.551 258.556 44.947C257.8 45.343 256.945 45.622 255.991 45.784C255.055 45.928 254.101 46 253.129 46H247.189ZM252.724 44.92C254.344 44.92 255.514 44.56 256.234 43.84C256.954 43.12 257.314 42.085 257.314 40.735C257.314 39.385 256.954 38.35 256.234 37.63C255.514 36.91 254.344 36.55 252.724 36.55C252.328 36.55 251.995 36.577 251.725 36.631C251.455 36.667 251.113 36.73 250.699 36.82V44.65C250.897 44.704 251.176 44.767 251.536 44.839C251.896 44.893 252.292 44.92 252.724 44.92Z" fill="white"/>
<defs>
<filter id="filter0_d_42_26" x="0.7" y="0.7" width="334.6" height="78.6" filterUnits="userSpaceOnUse" color-interpolation-filters="sRGB">
<feFlood flood-opacity="0" result="BackgroundImageFix"/>
<feColorMatrix in="SourceAlpha" type="matrix" values="0 0 0 0 0 0 0 0 0 0 0 0 0 0 0 0 0 0 127 0" result="hardAlpha"/>
<feOffset dy="4"/>
<feGaussianBlur stdDeviation="3.65"/>
<feComposite in2="hardAlpha" operator="out"/>
<feColorMatrix type="matrix" values="0 0 0 0 0 0 0 0 0 0 0 0 0 0 0 0 0 0 0.25 0"/>
<feBlend mode="normal" in2="BackgroundImageFix" result="effect1_dropShadow_42_26"/>
<feBlend mode="normal" in="SourceGraphic" in2="effect1_dropShadow_42_26" result="shape"/>
</filter>
<linearGradient id="paint0_linear_42_26" x1="177.364" y1="4" x2="178.873" y2="68.022" gradientUnits="userSpaceOnUse">
<stop offset="0.140625" stop-color="#A4CDD9"/>
<stop offset="0.4375" stop-color="#68A9B1"/>
<stop offset="1" stop-color="#577179"/>
</linearGradient>
</defs>
</svg>
