<svg width="503" height="499" viewBox="0 0 503 499" fill="none" xmlns="http://www.w3.org/2000/svg">
<path d="M460.018 366.849C468.297 353.18 474.369 338.518 479.477 323.432C480.018 321.832 480.398 320.181 480.858 318.551C477.731 318.69 476.247 316.141 474.245 314.475C464.19 306.117 454.157 297.745 444.132 289.351C436.152 282.667 428.216 275.924 420.229 269.239C410.204 260.845 400.149 252.502 390.116 244.115C382.034 237.358 373.996 230.549 365.914 223.791C356.071 215.558 346.199 207.368 336.364 199.135C328.194 192.297 320.083 185.386 311.914 178.548C302.078 170.314 292.191 162.14 282.356 153.899C274.186 147.061 266.082 140.143 257.913 133.297C247.989 124.976 238.015 116.721 228.084 108.407C220.01 101.642 211.986 94.8115 203.912 88.0539C193.981 79.7402 184.021 71.463 174.069 63.1785C165.972 56.45 157.795 49.8093 149.787 42.9786C147.551 41.0718 144.927 39.4573 143.495 36.7031C127.916 44.3374 113.572 53.842 100.382 65.1071C100.521 66.5317 101.244 67.5033 102.399 68.38C104.423 69.9215 106.286 71.6602 108.23 73.304C116.363 80.1858 124.467 87.1042 132.644 93.9349C142.392 102.088 152.227 110.131 161.975 118.292C171.723 126.452 181.376 134.729 191.124 142.897C200.96 151.137 210.876 159.276 220.711 167.509C230.364 175.589 239.951 183.764 249.597 191.851C259.615 200.253 269.677 208.588 279.703 216.982C287.683 223.667 295.618 230.417 303.605 237.102C313.631 245.496 323.693 253.832 333.718 262.218C341.8 268.976 349.831 275.792 357.913 282.542C367.668 290.688 377.467 298.775 387.208 306.943C396.861 315.03 406.433 323.212 416.079 331.307C427.668 341.031 439.236 350.791 450.971 360.339C453.828 362.684 456.167 365.862 460.018 366.849Z" fill="url(#paint0_linear_60_49)"/>
<path d="M323.211 477.082C331.731 475.058 339.783 471.698 347.734 468.177C358.022 463.625 368.238 458.862 377.504 452.353C375.933 452.258 374.771 451.213 373.704 450.329C364.38 442.622 355.129 434.827 345.863 427.039C337.716 420.186 329.597 413.297 321.435 406.459C311.607 398.233 301.72 390.066 291.892 381.832C283.729 374.994 275.64 368.076 267.471 361.238C257.642 353.012 247.741 344.859 237.913 336.633C228.267 328.553 218.687 320.392 209.041 312.312C199.213 304.079 189.312 295.941 179.483 287.707C169.838 279.627 160.258 271.467 150.612 263.387C140.601 254.993 130.547 246.658 120.528 238.278C112.454 231.52 104.423 224.726 96.3484 217.969C86.5128 209.743 76.6552 201.546 66.805 193.334C58.3505 186.292 49.779 179.373 41.4852 172.148C37.6708 168.824 33.2646 166.143 30.1151 162.066C25.0731 173.025 22.0771 184.641 19.3661 196.315C17.6197 203.854 15.9682 211.445 15.5736 219.225C16.8377 219.313 17.9192 219.875 18.8546 220.672C22.4497 223.733 25.9937 226.852 29.6035 229.899C37.7366 236.773 45.8842 243.633 54.0538 250.471C63.8894 258.704 73.7469 266.909 83.5971 275.12C91.9567 282.097 100.316 289.074 108.676 296.05C116.575 302.647 124.474 309.23 132.359 315.841C140.609 322.767 148.815 329.744 157.072 336.662C166.9 344.895 176.78 353.085 186.608 361.318C194.77 368.156 202.889 375.06 211.051 381.898C220.887 390.131 230.766 398.306 240.602 406.54C248.764 413.378 256.868 420.289 265.037 427.134C274.961 435.448 284.92 443.725 294.866 452.009C303.232 458.979 311.614 465.934 319.959 472.925C321.311 474.058 322.999 475.007 323.211 477.082Z" fill="url(#paint1_linear_60_49)"/>
<path d="M30.1078 162.052C33.2572 166.128 37.6635 168.809 41.4779 172.134C49.779 179.359 58.3431 186.277 66.7977 193.32C76.6479 201.531 86.5055 209.728 96.3411 217.954C104.416 224.704 112.454 231.506 120.521 238.263C130.539 246.643 140.594 254.979 150.605 263.373C160.243 271.46 169.823 279.62 179.476 287.693C189.304 295.926 199.206 304.065 209.034 312.298C218.68 320.378 228.26 328.538 237.905 336.618C247.734 344.851 257.635 352.997 267.463 361.223C275.625 368.054 283.722 374.98 291.884 381.818C301.713 390.051 311.599 398.219 321.428 406.445C329.59 413.275 337.708 420.172 345.856 427.024C355.114 434.812 364.365 442.607 373.697 450.314C374.771 451.198 375.925 452.243 377.496 452.338C385.907 447.999 393.273 442.118 400.69 436.346C404.782 433.161 408.947 430.02 412.433 426.126C409.941 424.044 407.091 422.488 404.599 420.34C394.975 412.055 385.103 404.056 375.37 395.895C365.724 387.808 356.166 379.619 346.514 371.546C335.282 362.158 323.963 352.88 312.732 343.493C301.596 334.171 290.562 324.732 279.425 315.417C268.201 306.03 256.868 296.759 245.636 287.371C235.888 279.218 226.265 270.919 216.517 262.766C205.293 253.371 193.952 244.115 182.735 234.713C171.328 225.15 160.053 215.426 148.647 205.863C137.43 196.461 126.089 187.205 114.865 177.817C105.117 169.664 95.5154 161.343 85.7455 153.219C73.6812 143.182 61.3465 133.458 49.8521 122.755C42.1137 133.787 36.9328 146.126 31.54 158.355C31.0285 159.575 30.5901 160.825 30.1078 162.052Z" fill="url(#paint2_linear_60_49)"/>
<path d="M460.018 366.849C456.167 365.855 453.821 362.677 450.964 360.347C439.228 350.798 427.668 341.038 416.072 331.314C406.426 323.22 396.846 315.045 387.201 306.95C377.46 298.79 367.653 290.703 357.906 282.55C349.824 275.792 341.786 268.983 333.711 262.226C323.686 253.839 313.616 245.496 303.598 237.109C295.611 230.425 287.683 223.674 279.696 216.99C269.677 208.596 259.608 200.26 249.59 191.859C239.944 183.764 230.357 175.596 220.704 167.516C210.868 159.283 200.952 151.137 191.117 142.904C181.376 134.736 171.716 126.466 161.968 118.299C152.227 110.139 142.384 102.095 132.636 93.9422C124.46 87.1042 116.356 80.1931 108.223 73.3113C106.279 71.6675 104.416 69.9215 102.392 68.3873C101.237 67.5107 100.514 66.5317 100.375 65.1144C89.2092 73.9395 79.0959 83.824 70.2102 94.9576C73.1477 98.3547 76.458 101.35 79.9143 104.221C88.1131 111.023 96.2022 117.956 104.379 124.786C112.461 131.537 120.623 138.185 128.698 144.942C136.867 151.78 144.956 158.713 153.119 165.559C163.137 173.96 173.199 182.296 183.225 190.682C191.307 197.44 199.345 204.241 207.419 210.999C217.262 219.232 227.134 227.415 236.97 235.655C245.139 242.493 253.251 249.404 261.42 256.242C271.256 264.476 281.142 272.651 290.978 280.884C299.148 287.722 307.251 294.64 315.414 301.486C325.337 309.799 335.297 318.077 345.249 326.368C353.616 333.338 361.998 340.3 370.357 347.277C378.169 353.793 385.966 360.317 393.762 366.841C402.21 373.906 410.65 380.985 419.097 388.049C424.643 392.688 430.204 397.32 435.75 401.952C443.123 393.901 449.203 384.908 454.968 375.681C456.773 372.81 458.344 369.8 460.018 366.849Z" fill="url(#paint3_linear_60_49)"/>
<path d="M143.488 36.7104C144.913 39.4646 147.536 41.0792 149.779 42.9859C157.788 49.8166 165.965 56.4574 174.061 63.1858C184.021 71.463 193.974 79.7475 203.904 88.0612C211.979 94.8261 220.002 101.65 228.077 108.414C238.008 116.728 247.982 124.991 257.905 133.305C266.075 140.15 274.179 147.061 282.348 153.906C292.184 162.147 302.071 170.322 311.906 178.555C320.076 185.393 328.187 192.304 336.356 199.142C346.192 207.383 356.071 215.565 365.907 223.798C373.989 230.556 382.027 237.365 390.109 244.122C400.134 252.509 410.197 260.852 420.222 269.246C428.209 275.931 436.145 282.674 444.124 289.358C454.143 297.753 464.183 306.125 474.238 314.482C476.24 316.148 477.723 318.705 480.851 318.559C484.658 306.782 487.245 294.735 488.955 282.491C489.488 278.7 489.905 274.886 490.379 271.087C488.224 271.168 486.835 269.853 485.345 268.538C481.625 265.25 477.833 262.05 474.026 258.858C464.19 250.624 454.318 242.442 444.482 234.202C436.32 227.364 428.209 220.452 420.039 213.622C410.204 205.388 400.317 197.221 390.489 188.98C382.319 182.142 374.223 175.224 366.053 168.386C356.13 160.072 346.155 151.809 336.225 143.503C328.055 136.665 319.937 129.776 311.753 122.953C302.275 115.048 292.717 107.238 283.262 99.3044C273.338 90.9834 263.525 82.5309 253.601 74.2025C243.868 66.0349 234.054 57.9696 224.284 49.8458C214.149 41.4079 203.985 32.9992 193.937 24.459C192.154 22.9468 189.874 21.6464 189.487 18.9287C179.513 21.1058 169.977 24.6124 160.653 28.6889C154.872 31.224 149.209 34.0293 143.488 36.7104Z" fill="url(#paint4_linear_60_49)"/>
<path d="M323.211 477.082C322.999 475.007 321.311 474.058 319.944 472.918C311.599 465.926 303.218 458.972 294.851 452.002C284.906 443.718 274.946 435.44 265.023 427.127C256.86 420.289 248.757 413.378 240.587 406.532C230.759 398.299 220.872 390.124 211.036 381.891C202.867 375.053 194.756 368.156 186.593 361.311C176.765 353.078 166.886 344.888 157.057 336.655C148.8 329.736 140.594 322.759 132.344 315.834C124.467 309.222 116.56 302.64 108.661 296.043C100.302 289.066 91.9421 282.089 83.5826 275.113C73.7324 266.894 63.8748 258.697 54.0392 250.464C45.8696 243.626 37.722 236.766 29.589 229.891C25.9792 226.845 22.4351 223.725 18.8399 220.664C17.9046 219.868 16.8304 219.305 15.559 219.218C14.4044 222.082 14.5067 225.172 14.3241 228.123C13.7979 236.693 13.1257 245.328 13.6153 253.868C14.0902 262.284 13.4983 270.824 15.5736 279.123C16.9839 279.08 17.6635 280.197 18.5769 280.972C25.2265 286.612 31.8689 292.251 38.5478 297.848C48.471 306.161 58.4455 314.424 68.3688 322.738C76.4433 329.503 84.4595 336.326 92.534 343.091C102.465 351.405 112.439 359.66 122.37 367.966C130.539 374.804 138.665 381.693 146.834 388.531C156.67 396.765 166.542 404.954 176.371 413.195C184.54 420.033 192.651 426.937 200.821 433.775C210.656 442.008 220.521 450.205 230.379 458.416C238.841 465.466 247.456 472.333 255.669 479.654C258.417 482.101 262.713 483.387 263.291 487.916C272.213 487.595 281.062 486.499 289.853 485.067C301.172 483.211 312.418 481.071 323.211 477.082Z" fill="url(#paint5_linear_60_49)"/>
<path d="M435.765 401.952C430.211 397.32 424.658 392.688 419.111 388.049C410.664 380.985 402.224 373.906 393.777 366.841C385.98 360.317 378.176 353.793 370.372 347.277C362.005 340.3 353.631 333.338 345.264 326.368C335.319 318.077 325.359 309.799 315.428 301.486C307.259 294.64 299.155 287.729 290.993 280.884C281.157 272.651 271.27 264.476 261.435 256.242C253.265 249.404 245.154 242.493 236.985 235.655C227.149 227.415 217.277 219.232 207.434 210.999C199.352 204.241 191.314 197.44 183.239 190.682C173.214 182.296 163.152 173.96 153.133 165.559C144.971 158.713 136.882 151.773 128.712 144.942C120.638 138.185 112.476 131.537 104.394 124.786C96.2169 117.956 88.1277 111.023 79.929 104.221C76.4726 101.35 73.1624 98.362 70.2249 94.9576C64.0867 101.43 59.4612 109.035 54.2584 116.209C52.7166 118.335 51.3354 120.578 49.8886 122.77C61.383 133.48 73.7177 143.204 85.782 153.234C95.5518 161.358 105.154 169.679 114.902 177.832C126.126 187.227 137.467 196.476 148.683 205.878C160.09 215.441 171.365 225.157 182.772 234.727C193.988 244.13 205.322 253.393 216.553 262.781C226.301 270.934 235.925 279.233 245.673 287.386C256.897 296.781 268.23 306.044 279.462 315.432C290.598 324.747 301.632 334.193 312.768 343.507C323.992 352.902 335.319 362.173 346.55 371.561C356.203 379.633 365.761 387.823 375.407 395.91C385.14 404.07 395.012 412.07 404.636 420.354C407.127 422.502 409.977 424.058 412.469 426.14C421.15 418.974 428.691 410.689 435.765 401.952Z" fill="url(#paint6_linear_60_49)"/>
<path d="M489.693 223.608C489.992 217.413 488.582 211.379 487.398 205.41C482.743 181.974 475.458 159.356 463.956 138.338C427.405 71.5506 371.979 30.0405 297.248 14.655C286.353 12.4122 275.311 11.3602 264.175 10.9072C258.614 10.6807 253.053 10.352 247.485 10.3812C243.744 10.4031 240.054 11.4259 236.283 11.1045C236.108 12.6532 237.05 13.3692 238.168 14.297C245.074 20.0026 251.855 25.8617 258.702 31.6404C266.659 38.3542 274.624 45.0534 282.619 51.7234C290.795 58.5467 299.031 65.2971 307.2 72.1205C315.377 78.9512 323.488 85.8476 331.658 92.6856C341.493 100.919 351.373 109.101 361.201 117.342C369.371 124.18 377.475 131.091 385.651 137.922C395.399 146.075 405.206 154.147 414.946 162.308C424.592 170.395 434.164 178.57 443.81 186.672C457.066 197.798 470.328 208.917 483.649 219.963C485.432 221.453 486.952 223.594 489.693 223.608Z" fill="url(#paint7_linear_60_49)"/>
<path d="M489.693 223.608C486.96 223.594 485.44 221.461 483.635 219.963C470.314 208.917 457.051 197.798 443.796 186.672C434.157 178.577 424.585 170.395 414.932 162.308C405.191 154.147 395.385 146.067 385.637 137.922C377.467 131.091 369.356 124.18 361.187 117.342C351.351 109.108 341.479 100.919 331.643 92.6856C323.474 85.8476 315.363 78.9439 307.186 72.1205C299.016 65.2971 290.781 58.5467 282.604 51.7234C274.61 45.0534 266.645 38.3542 258.687 31.6404C251.84 25.8617 245.066 20.0026 238.154 14.297C237.036 13.3765 236.086 12.6605 236.268 11.1045C220.419 12.1638 204.73 14.202 189.494 18.936C189.882 21.6537 192.169 22.9468 193.945 24.459C203.999 32.9992 214.157 41.4079 224.292 49.8458C234.054 57.9696 243.875 66.0349 253.609 74.2025C263.532 82.5236 273.346 90.9761 283.269 99.3044C292.725 107.231 302.283 115.048 311.76 122.953C319.937 129.776 328.063 136.672 336.232 143.503C346.163 151.809 356.137 160.072 366.061 168.386C374.223 175.224 382.327 182.142 390.496 188.98C400.332 197.214 410.219 205.388 420.047 213.622C428.216 220.46 436.327 227.364 444.49 234.202C454.325 242.435 464.197 250.624 474.033 258.858C477.84 262.043 481.633 265.25 485.352 268.538C486.843 269.853 488.231 271.175 490.387 271.087C491.629 260.019 491.512 248.893 491.081 237.818C490.898 233.106 491.256 228.226 489.693 223.608Z" fill="url(#paint8_linear_60_49)"/>
<path d="M263.305 487.909C262.728 483.379 258.431 482.094 255.684 479.646C247.471 472.326 238.848 465.452 230.393 458.409C220.543 450.198 210.671 442.001 200.835 433.767C192.666 426.929 184.547 420.033 176.385 413.188C166.55 404.954 156.677 396.765 146.849 388.524C138.68 381.686 130.561 374.797 122.384 367.959C112.454 359.653 102.479 351.397 92.5486 343.084C84.474 336.326 76.4579 329.495 68.3834 322.73C58.4601 314.417 48.4856 306.154 38.5623 297.84C31.8834 292.244 25.2411 286.597 18.5915 280.964C17.6781 280.19 16.9985 279.072 15.5882 279.116C16.2824 288.949 18.3285 298.534 20.9226 308.017C23.524 317.551 26.6076 326.931 30.0932 336.18C30.4731 337.181 31.0285 338.123 31.5035 339.087C32.0808 339.226 32.7969 339.197 33.2061 339.533C42.4133 347.189 51.5985 354.875 60.7692 362.575C70.4002 370.669 79.9946 378.808 89.633 386.895C99.644 395.289 109.691 403.625 119.71 412.004C127.784 418.754 135.815 425.556 143.89 432.306C152.059 439.13 160.265 445.895 168.449 452.703C176.816 459.658 185.307 466.482 193.47 473.678C196.466 476.315 200.682 477.915 201.931 482.306C209.231 484.49 216.78 485.374 224.284 486.448C237.218 488.311 250.262 488.208 263.305 487.909Z" fill="url(#paint9_linear_60_49)"/>
<path d="M201.917 482.313C200.667 477.922 196.451 476.322 193.455 473.685C185.293 466.489 176.802 459.666 168.435 452.711C160.251 445.909 152.044 439.137 143.875 432.314C135.793 425.571 127.762 418.769 119.695 412.011C109.677 403.632 99.622 395.289 89.6183 386.902C79.98 378.815 70.3855 370.677 60.7545 362.582C51.5839 354.875 42.3986 347.197 33.1914 339.54C32.7822 339.204 32.0662 339.234 31.4889 339.095C34.8795 349.951 40.36 359.828 46.0231 369.588C57.364 389.152 71.2478 406.773 87.7184 422.276C116.626 449.496 150.086 468.761 188.457 479.325C192.892 480.552 197.247 482.123 201.917 482.313Z" fill="url(#paint10_linear_60_49)"/>
<path d="M247.434 498.37C289.955 498.166 326.404 490.283 360.872 473.605C370.072 469.155 379.075 464.363 387.624 458.752C388.655 458.08 390.387 457.773 389.21 455.837C388.063 453.953 386.952 454.822 385.622 455.669C367.032 467.409 347.332 476.782 326.28 483.226C309.889 488.238 293.214 491.759 276.093 493.264C266.155 494.14 256.232 494.9 246.272 494.513C237.92 494.184 229.553 493.856 221.267 492.533C219.951 492.321 218.592 492.424 217.255 492.343C215.925 492.27 215.187 492.782 215.136 494.192C215.085 495.718 216.049 495.894 217.255 496.025C228.72 497.253 240.171 498.677 247.434 498.37Z" fill="#A7CFF8"/>
<path d="M1.01018 249.171C0.659433 262.306 2.20122 275.295 3.96958 288.27C4.13765 289.519 4.21804 290.776 6.0814 290.418C7.71824 290.104 8.00325 289.446 7.7548 287.678C5.64299 272.906 4.22537 258.054 4.73689 243.114C5.49684 221.117 8.64625 199.478 15.2009 178.409C17.9411 169.606 20.9298 160.883 24.788 152.496C25.0438 151.948 25.1388 151.327 25.4018 150.787C26.096 149.369 25.1826 148.865 24.145 148.296C22.5886 147.433 22.384 148.537 21.909 149.581C15.6978 163.206 11.1015 177.372 7.64517 191.917C4.53227 205.016 2.60313 218.268 1.60203 231.71C1.16359 237.548 1.2221 243.355 1.01018 249.171Z" fill="#A8D1F8"/>
<path d="M251.906 0C213.798 0.219167 177.394 8.08726 142.991 24.817C139.498 26.5119 136.042 28.2798 132.585 30.0331C131.299 30.6833 129.64 31.2166 130.583 33.1964C131.57 35.2712 133.016 34.1608 134.244 33.4814C153.506 22.8664 173.937 15.3198 195.318 10.3593C209.37 7.10101 223.605 5.1212 238.044 4.31028C247.763 3.76237 257.423 3.58702 267.112 4.39064C268.355 4.49291 270.24 5.22348 270.51 2.84917C270.781 0.474868 268.925 0.935118 267.602 0.657507C262.421 -0.423716 257.175 0.445639 251.906 0Z" fill="#A9D2F8"/>
<path d="M502.985 252.1C503.007 229.869 500.858 211.021 496.423 192.428C496.087 191.004 496.013 189.711 494.084 190.054C492.024 190.427 492.564 192.085 492.769 193.246C493.755 198.726 495.027 204.146 495.948 209.64C497.226 217.282 498.023 224.982 498.644 232.711C499.221 239.987 499.47 247.271 499.221 254.54C498.432 277.64 495.137 300.353 487.939 322.401C487.15 324.82 486.287 327.216 485.52 329.634C485.14 330.832 484.293 332.154 486.339 332.848C488.509 333.586 488.721 332.052 489.24 330.657C492.038 323.139 494.267 315.432 496.094 307.659C500.624 288.379 503.226 268.83 502.985 252.1Z" fill="#A8D1F8"/>
<path d="M280.31 1.57798C278.885 1.49762 277.504 1.57067 277.335 3.41167C277.138 5.61795 278.877 5.09926 280.105 5.25998C303.795 8.32101 326.777 14.0047 348.823 23.3485C368.735 31.7938 387.201 42.6644 404.278 55.9094C404.855 56.355 405.425 56.808 406.031 57.2025C407.179 57.955 408.348 59.5476 409.714 57.6993C411.022 55.924 409.283 55.0108 408.238 54.1926C399.06 46.982 389.495 40.3193 379.404 34.4603C358.161 22.1431 335.677 12.8724 311.76 7.15212C301.384 4.68285 290.905 2.7907 280.31 1.57798Z" fill="#A9D2F8"/>
<path d="M206.316 494.221C207.931 494.535 208.15 493.286 208.325 492.263C208.566 490.809 207.492 490.451 206.316 490.254C199.863 489.158 193.506 487.646 187.185 485.958C153.396 476.907 122.91 461.404 95.7638 439.327C91.6133 435.952 87.4774 432.584 83.736 428.756C82.5815 427.58 81.5146 426.886 80.097 428.434C78.5844 430.085 80.1263 430.845 81.0177 431.649C95.7565 444.938 111.548 456.802 128.946 466.409C149.882 477.973 171.95 486.652 195.304 491.949C198.95 492.782 202.64 493.468 206.316 494.221Z" fill="#A7CFF8"/>
<path d="M6.22758 300.668C7.38213 305.255 8.64632 310.808 10.1808 316.287C18.6062 346.327 32.3804 373.752 51.1163 398.657C57.459 407.095 64.284 415.175 71.8471 422.583C72.7824 423.503 73.6009 425.264 75.34 423.474C77.0791 421.684 75.2377 420.902 74.3462 419.975C55.9026 400.863 40.6523 379.487 29.0921 355.576C20.7253 338.269 14.346 320.217 10.422 301.354C10.2758 300.646 9.93975 299.959 9.85937 299.25C9.71322 297.935 9.15786 297.278 7.74755 297.395C6.19109 297.519 6.06682 298.512 6.22758 300.668Z" fill="#A9D0F8"/>
<path d="M394.756 450.76C395.326 453.288 396.488 452.85 398.125 451.717C404.519 447.283 410.606 442.454 416.474 437.376C434.311 421.962 449.766 404.414 462.67 384.674C471.264 371.524 478.556 357.673 484.453 343.106C484.95 341.871 486.266 340.527 484.029 339.504C481.808 338.481 481.596 340.213 481.07 341.506C470.182 368.193 454.925 392.082 435.597 413.487C423.971 426.36 411 437.61 397.065 447.838C396.006 448.605 394.72 449.197 394.756 450.76Z" fill="#A7CFF8"/>
<path d="M26.1326 140.552C26.0814 141.816 27.0826 141.954 27.806 142.269C29.0847 142.816 29.494 141.794 29.9617 140.932C32.5777 136.139 35.1059 131.288 37.8316 126.554C46.3299 111.768 56.4506 98.1868 67.8134 85.4605C83.7141 67.6495 102.048 52.8558 122.223 40.2099C123.246 39.567 125.87 39.3624 124.416 37.0247C123.049 34.8257 121.456 36.316 120.053 37.1635C100.316 49.1811 82.6472 63.7703 67.0169 80.7265C50.9774 98.121 37.3859 117.298 27.0388 138.667C26.7245 139.324 26.4102 139.982 26.1326 140.552Z" fill="#A9D2F8"/>
<path d="M491.556 183.333C493.624 182.939 493.602 181.58 493.098 179.797C490.379 170.205 486.967 160.861 483.043 151.707C473.163 128.651 460.032 107.574 443.847 88.4558C435.991 79.1777 427.478 70.4914 418.213 62.5722C417.299 61.7905 416.569 61.1914 415.451 62.3165C414.216 63.5657 414.807 64.3986 415.816 65.341C420.251 69.4978 424.811 73.5232 429.042 77.8773C454.311 103.841 473.354 133.714 485.301 167.991C486.857 172.455 488.275 176.97 489.693 181.485C489.992 182.434 490.043 183.45 491.556 183.333Z" fill="#A9D2F8"/>
<defs>
<linearGradient id="paint0_linear_60_49" x1="252.413" y1="10.3794" x2="252.413" y2="488.078" gradientUnits="userSpaceOnUse">
<stop stop-color="#6189B2"/>
<stop offset="1" stop-color="#6189B2" stop-opacity="0"/>
</linearGradient>
<linearGradient id="paint1_linear_60_49" x1="252.413" y1="10.3794" x2="252.413" y2="488.078" gradientUnits="userSpaceOnUse">
<stop stop-color="#6189B2"/>
<stop offset="1" stop-color="#6189B2" stop-opacity="0"/>
</linearGradient>
<linearGradient id="paint2_linear_60_49" x1="252.413" y1="10.3794" x2="252.413" y2="488.078" gradientUnits="userSpaceOnUse">
<stop stop-color="#6189B2"/>
<stop offset="1" stop-color="#6189B2" stop-opacity="0"/>
</linearGradient>
<linearGradient id="paint3_linear_60_49" x1="252.413" y1="10.3794" x2="252.413" y2="488.078" gradientUnits="userSpaceOnUse">
<stop stop-color="#6189B2"/>
<stop offset="1" stop-color="#6189B2" stop-opacity="0"/>
</linearGradient>
<linearGradient id="paint4_linear_60_49" x1="252.413" y1="10.3794" x2="252.413" y2="488.078" gradientUnits="userSpaceOnUse">
<stop stop-color="#6189B2"/>
<stop offset="1" stop-color="#6189B2" stop-opacity="0"/>
</linearGradient>
<linearGradient id="paint5_linear_60_49" x1="252.413" y1="10.3794" x2="252.413" y2="488.078" gradientUnits="userSpaceOnUse">
<stop stop-color="#6189B2"/>
<stop offset="1" stop-color="#6189B2" stop-opacity="0"/>
</linearGradient>
<linearGradient id="paint6_linear_60_49" x1="252.413" y1="10.3794" x2="252.413" y2="488.078" gradientUnits="userSpaceOnUse">
<stop stop-color="#6189B2"/>
<stop offset="1" stop-color="#6189B2" stop-opacity="0"/>
</linearGradient>
<linearGradient id="paint7_linear_60_49" x1="252.413" y1="10.3794" x2="252.413" y2="488.078" gradientUnits="userSpaceOnUse">
<stop stop-color="#6189B2"/>
<stop offset="1" stop-color="#6189B2" stop-opacity="0"/>
</linearGradient>
<linearGradient id="paint8_linear_60_49" x1="252.413" y1="10.3794" x2="252.413" y2="488.078" gradientUnits="userSpaceOnUse">
<stop stop-color="#6189B2"/>
<stop offset="1" stop-color="#6189B2" stop-opacity="0"/>
</linearGradient>
<linearGradient id="paint9_linear_60_49" x1="252.413" y1="10.3794" x2="252.413" y2="488.078" gradientUnits="userSpaceOnUse">
<stop stop-color="#6189B2"/>
<stop offset="1" stop-color="#6189B2" stop-opacity="0"/>
</linearGradient>
<linearGradient id="paint10_linear_60_49" x1="252.413" y1="10.3794" x2="252.413" y2="488.078" gradientUnits="userSpaceOnUse">
<stop stop-color="#6189B2"/>
<stop offset="1" stop-color="#6189B2" stop-opacity="0"/>
</linearGradient>
</defs>
</svg>
