<svg width="48.000000" height="50.000000" viewBox="0 0 48 50" fill="none" xmlns="http://www.w3.org/2000/svg" xmlns:xlink="http://www.w3.org/1999/xlink">
	<desc>
			Created with Pixso.
	</desc>
	<defs/>
	<g opacity="0.830000">
		<path id="path" d="M24 0C23.21 0 22.42 0.04 21.64 0.12C20.86 0.2 20.08 0.32 19.31 0.48C18.54 0.64 17.78 0.83 17.03 1.07C16.28 1.31 15.54 1.58 14.81 1.9C14.08 2.21 13.37 2.56 12.68 2.95C11.99 3.33 11.31 3.75 10.66 4.21C10.01 4.66 9.38 5.15 8.77 5.67C8.16 6.19 7.58 6.74 7.02 7.32C6.47 7.9 5.94 8.5 5.44 9.14C4.94 9.77 4.48 10.43 4.04 11.11C3.6 11.79 3.2 12.49 2.83 13.21C2.46 13.93 2.12 14.67 1.82 15.43C1.52 16.18 1.26 16.95 1.03 17.74C0.8 18.52 0.61 19.31 0.46 20.12C0.3 20.92 0.19 21.73 0.11 22.54C0.03 23.36 0 24.18 0 25C0 25.81 0.03 26.63 0.11 27.45C0.19 28.26 0.3 29.07 0.46 29.87C0.61 30.68 0.8 31.47 1.03 32.25C1.26 33.04 1.52 33.81 1.82 34.56C2.12 35.32 2.46 36.06 2.83 36.78C3.2 37.5 3.6 38.2 4.04 38.88C4.48 39.56 4.94 40.22 5.44 40.85C5.94 41.49 6.47 42.09 7.02 42.67C7.58 43.25 8.16 43.8 8.77 44.32C9.38 44.84 10.01 45.33 10.66 45.78C11.31 46.24 11.99 46.66 12.68 47.04C13.37 47.43 14.08 47.78 14.81 48.09C15.54 48.41 16.28 48.68 17.03 48.92C17.78 49.16 18.54 49.35 19.31 49.51C20.08 49.67 20.86 49.79 21.64 49.87C22.42 49.96 23.21 50 24 50C24.78 50 25.57 49.96 26.35 49.87C27.13 49.79 27.91 49.67 28.68 49.51C29.45 49.35 30.21 49.16 30.96 48.92C31.71 48.68 32.45 48.41 33.18 48.09C33.91 47.78 34.62 47.43 35.31 47.04C36 46.66 36.68 46.24 37.33 45.78C37.98 45.33 38.61 44.84 39.22 44.32C39.83 43.8 40.41 43.25 40.97 42.67C41.52 42.09 42.05 41.49 42.55 40.85C43.05 40.22 43.51 39.56 43.95 38.88C44.39 38.2 44.79 37.5 45.16 36.78C45.53 36.06 45.87 35.32 46.17 34.56C46.47 33.81 46.73 33.04 46.96 32.25C47.19 31.47 47.38 30.68 47.53 29.87C47.69 29.07 47.8 28.26 47.88 27.45C47.96 26.63 48 25.81 48 25C47.99 24.18 47.95 23.36 47.88 22.55C47.8 21.73 47.68 20.92 47.53 20.12C47.38 19.32 47.18 18.52 46.96 17.74C46.73 16.96 46.46 16.19 46.16 15.43C45.86 14.68 45.52 13.94 45.15 13.22C44.78 12.49 44.38 11.79 43.94 11.11C43.5 10.43 43.04 9.78 42.54 9.14C42.04 8.51 41.51 7.9 40.96 7.33C40.4 6.75 39.82 6.2 39.21 5.68C38.61 5.16 37.98 4.67 37.32 4.22C36.67 3.76 36 3.34 35.3 2.96C34.61 2.57 33.9 2.22 33.18 1.91C32.45 1.59 31.71 1.32 30.96 1.08C30.21 0.84 29.45 0.64 28.68 0.48C27.9 0.32 27.13 0.2 26.35 0.12C25.56 0.04 24.78 0 24 0ZM10.69 42.15C11.03 41.56 11.41 40.99 11.82 40.44C12.24 39.9 12.68 39.38 13.16 38.9C13.64 38.41 14.15 37.96 14.68 37.55C15.21 37.13 15.77 36.75 16.35 36.41C16.93 36.07 17.53 35.76 18.15 35.5C18.77 35.24 19.4 35.02 20.04 34.85C20.69 34.67 21.34 34.54 22 34.45C22.66 34.36 23.33 34.31 24 34.31C24.66 34.31 25.33 34.36 25.99 34.45C26.65 34.54 27.3 34.67 27.95 34.85C28.59 35.02 29.22 35.24 29.84 35.5C30.46 35.76 31.06 36.07 31.64 36.41C32.22 36.75 32.78 37.13 33.31 37.55C33.84 37.96 34.35 38.41 34.83 38.9C35.31 39.38 35.75 39.9 36.17 40.44C36.58 40.99 36.96 41.56 37.3 42.15C36.37 42.94 35.38 43.64 34.33 44.25C33.28 44.87 32.19 45.38 31.05 45.8C29.92 46.22 28.76 46.54 27.58 46.75C26.39 46.96 25.2 47.07 24 47.07C22.79 47.07 21.6 46.96 20.41 46.75C19.23 46.54 18.07 46.22 16.94 45.8C15.8 45.38 14.71 44.87 13.66 44.25C12.61 43.64 11.62 42.94 10.69 42.15ZM16 23.03C16 22.49 16.05 21.95 16.15 21.41C16.25 20.87 16.4 20.35 16.6 19.85C16.8 19.34 17.05 18.86 17.34 18.4C17.64 17.95 17.97 17.53 18.34 17.14C18.71 16.75 19.11 16.41 19.55 16.11C19.99 15.8 20.45 15.54 20.93 15.34C21.42 15.13 21.92 14.97 22.43 14.86C22.95 14.75 23.47 14.7 24 14.7C24.52 14.7 25.04 14.75 25.56 14.86C26.07 14.97 26.57 15.13 27.06 15.34C27.54 15.54 28 15.8 28.44 16.11C28.88 16.41 29.28 16.75 29.65 17.14C30.02 17.53 30.35 17.95 30.65 18.4C30.94 18.86 31.19 19.34 31.39 19.85C31.59 20.35 31.74 20.87 31.84 21.41C31.94 21.95 32 22.49 32 23.03C32 23.58 31.94 24.12 31.84 24.66C31.74 25.2 31.59 25.72 31.39 26.22C31.19 26.73 30.94 27.21 30.65 27.66C30.35 28.12 30.02 28.54 29.65 28.93C29.28 29.31 28.88 29.66 28.44 29.96C28 30.27 27.54 30.52 27.06 30.73C26.57 30.94 26.07 31.1 25.56 31.21C25.04 31.31 24.52 31.37 24 31.37C23.47 31.37 22.95 31.31 22.43 31.21C21.92 31.1 21.42 30.94 20.93 30.73C20.45 30.52 19.99 30.27 19.55 29.96C19.11 29.66 18.71 29.31 18.34 28.93C17.97 28.54 17.64 28.12 17.34 27.66C17.05 27.21 16.8 26.73 16.6 26.22C16.4 25.72 16.25 25.2 16.15 24.66C16.05 24.12 16 23.58 16 23.03ZM39.41 40.1C38.3 38.31 36.94 36.75 35.33 35.43C33.71 34.11 31.94 33.11 30 32.41C30.32 32.19 30.62 31.95 30.92 31.69C31.22 31.44 31.5 31.17 31.76 30.88C32.03 30.59 32.28 30.29 32.52 29.98C32.76 29.66 32.98 29.33 33.18 28.99C33.39 28.65 33.57 28.3 33.74 27.94C33.91 27.58 34.05 27.21 34.18 26.84C34.31 26.46 34.42 26.08 34.52 25.69C34.61 25.3 34.68 24.91 34.73 24.51C34.78 24.11 34.81 23.72 34.82 23.32C34.83 22.91 34.82 22.52 34.79 22.12C34.75 21.72 34.7 21.32 34.63 20.93C34.56 20.53 34.47 20.15 34.36 19.76C34.25 19.38 34.12 19 33.97 18.64C33.82 18.27 33.65 17.91 33.46 17.56C33.27 17.21 33.07 16.87 32.85 16.54C32.63 16.21 32.39 15.9 32.14 15.6C31.89 15.3 31.62 15.01 31.33 14.74C31.05 14.47 30.76 14.21 30.45 13.98C30.14 13.74 29.82 13.52 29.49 13.31C29.16 13.11 28.82 12.93 28.47 12.76C28.12 12.59 27.76 12.45 27.39 12.32C27.03 12.2 26.66 12.09 26.28 12.01C25.91 11.92 25.53 11.86 25.15 11.82C24.76 11.77 24.38 11.75 24 11.75C23.61 11.75 23.23 11.77 22.85 11.82C22.47 11.86 22.09 11.92 21.71 12.01C21.34 12.09 20.97 12.2 20.6 12.32C20.24 12.45 19.88 12.59 19.53 12.76C19.18 12.93 18.84 13.11 18.51 13.31C18.18 13.52 17.86 13.74 17.55 13.98C17.24 14.21 16.94 14.47 16.66 14.74C16.38 15.01 16.11 15.3 15.86 15.6C15.6 15.9 15.37 16.21 15.14 16.54C14.92 16.87 14.72 17.21 14.53 17.56C14.35 17.91 14.18 18.27 14.03 18.64C13.88 19 13.75 19.38 13.64 19.76C13.53 20.15 13.43 20.53 13.36 20.93C13.29 21.32 13.24 21.72 13.21 22.12C13.18 22.52 13.17 22.91 13.18 23.32C13.19 23.72 13.22 24.11 13.27 24.51C13.32 24.91 13.39 25.3 13.48 25.69C13.57 26.08 13.68 26.46 13.81 26.84C13.94 27.21 14.09 27.58 14.26 27.94C14.42 28.3 14.61 28.65 14.81 28.99C15.02 29.33 15.24 29.66 15.47 29.98C15.71 30.29 15.96 30.59 16.23 30.88C16.5 31.17 16.78 31.44 17.07 31.69C17.37 31.95 17.68 32.19 18 32.41C16.06 33.11 14.28 34.11 12.67 35.43C11.06 36.75 9.69 38.31 8.59 40.1C8.12 39.58 7.67 39.04 7.25 38.48C6.83 37.91 6.44 37.33 6.08 36.73C5.71 36.12 5.38 35.5 5.07 34.86C4.76 34.23 4.48 33.58 4.24 32.91C3.99 32.24 3.78 31.57 3.59 30.88C3.41 30.19 3.26 29.5 3.14 28.8C3.02 28.09 2.94 27.39 2.88 26.67C2.83 25.96 2.81 25.25 2.83 24.54C2.84 23.83 2.89 23.11 2.96 22.41C3.04 21.7 3.16 20.99 3.3 20.3C3.45 19.6 3.62 18.91 3.83 18.23C4.04 17.55 4.28 16.89 4.56 16.23C4.83 15.58 5.13 14.94 5.46 14.31C5.79 13.69 6.15 13.08 6.54 12.49C6.92 11.91 7.34 11.34 7.78 10.79C8.22 10.25 8.68 9.72 9.17 9.22C9.66 8.72 10.17 8.25 10.71 7.8C11.24 7.35 11.79 6.93 12.36 6.54C12.94 6.15 13.52 5.79 14.13 5.46C14.74 5.12 15.36 4.82 15.99 4.55C16.62 4.28 17.27 4.05 17.93 3.84C18.58 3.64 19.25 3.47 19.92 3.33C20.59 3.19 21.27 3.09 21.95 3.02C22.63 2.95 23.31 2.92 24 2.92C24.68 2.92 25.37 2.95 26.05 3.02C26.73 3.09 27.41 3.19 28.08 3.33C28.75 3.47 29.41 3.64 30.07 3.84C30.73 4.05 31.37 4.28 32 4.55C32.64 4.82 33.26 5.12 33.86 5.46C34.47 5.79 35.06 6.15 35.63 6.54C36.2 6.93 36.76 7.35 37.29 7.8C37.82 8.25 38.33 8.72 38.82 9.22C39.31 9.72 39.78 10.25 40.22 10.79C40.66 11.34 41.07 11.91 41.46 12.49C41.85 13.08 42.2 13.69 42.54 14.31C42.87 14.94 43.17 15.58 43.44 16.23C43.71 16.89 43.95 17.55 44.16 18.23C44.37 18.91 44.55 19.6 44.69 20.3C44.84 20.99 44.95 21.7 45.03 22.41C45.11 23.11 45.16 23.83 45.17 24.54C45.18 25.25 45.16 25.96 45.11 26.67C45.06 27.39 44.97 28.09 44.85 28.8C44.74 29.5 44.58 30.19 44.4 30.88C44.22 31.57 44 32.24 43.76 32.91C43.51 33.58 43.23 34.23 42.93 34.86C42.62 35.5 42.28 36.12 41.92 36.73C41.55 37.33 41.16 37.91 40.74 38.48C40.32 39.04 39.88 39.58 39.41 40.1Z" fill="#FFFFFF" fill-opacity="1.000000" fill-rule="nonzero"/>
	</g>
</svg>
