<svg width="352" height="80" viewBox="0 0 352 80" fill="none" xmlns="http://www.w3.org/2000/svg">
<g filter="url(#filter0_d_188_2)">
<rect x="8" y="4" width="336" height="64" rx="31" fill="url(#paint0_linear_188_2)"/>
<rect x="8" y="4" width="336" height="64" rx="31" fill="url(#paint1_linear_188_2)"/>
<rect x="9.5" y="5.5" width="333" height="61" rx="29.5" stroke="#DCEBFC" stroke-width="3"/>
</g>
<path d="M122.41 43.08C121.97 43.08 121.503 43.0267 121.01 42.92C120.53 42.8 120.063 42.5533 119.61 42.18C119.17 41.8067 118.79 41.24 118.47 40.48L118.01 39.36H112.69L111.05 43H110.01L115.91 29.8H116.81L121.29 40.48C121.53 41.0667 121.823 41.5333 122.17 41.88C122.517 42.2267 122.917 42.4267 123.37 42.48V42.98C123.263 43.0067 123.11 43.0267 122.91 43.04C122.723 43.0667 122.557 43.08 122.41 43.08ZM113.11 38.46H117.63L115.43 33.24L113.11 38.46ZM124.699 43V32.4C124.699 31.8 124.613 31.32 124.439 30.96C124.279 30.5867 123.899 30.4 123.299 30.4H123.099V29.8H125.499C125.966 29.8 126.326 29.88 126.579 30.04C126.846 30.2 127.033 30.4667 127.139 30.84C127.246 31.2133 127.299 31.7333 127.299 32.4V35.7H132.699V29.8H135.299V40.4C135.299 41 135.379 41.4867 135.539 41.86C135.713 42.22 136.099 42.4 136.699 42.4H136.899V43H134.499C134.033 43 133.666 42.9267 133.399 42.78C133.146 42.62 132.966 42.3533 132.859 41.98C132.753 41.5933 132.699 41.0667 132.699 40.4V36.6H127.299V43H124.699ZM149.814 43.2C149.32 43.2 148.82 43.14 148.314 43.02C147.807 42.9 147.274 42.6667 146.714 42.32C146.167 41.9733 145.574 41.4667 144.934 40.8L141.714 37.44V43H139.114L139.094 32.4C139.094 31.8 139.007 31.32 138.834 30.96C138.674 30.5867 138.294 30.4 137.694 30.4H137.494V29.8H139.894C140.36 29.8 140.72 29.88 140.974 30.04C141.24 30.2 141.427 30.4667 141.534 30.84C141.654 31.2133 141.714 31.7333 141.714 32.4V36.2L145.174 31.9C145.467 31.5267 145.787 31.18 146.134 30.86C146.48 30.54 146.867 30.2867 147.294 30.1C147.72 29.9 148.194 29.8 148.714 29.8H150.114V30.5C149.354 30.5 148.667 30.6 148.054 30.8C147.44 30.9867 146.907 31.36 146.454 31.92L143.474 35.6L148.094 40.4C148.427 40.76 148.787 41.1 149.174 41.42C149.574 41.7267 149.96 41.98 150.334 42.18C150.707 42.3667 151.02 42.48 151.274 42.52V43C151.127 43.0533 150.92 43.1 150.654 43.14C150.4 43.18 150.12 43.2 149.814 43.2ZM152.961 43V32.4C152.961 31.8 152.874 31.32 152.701 30.96C152.541 30.5867 152.161 30.4 151.561 30.4H151.361V29.8H160.181C160.648 29.8 161.001 29.88 161.241 30.04C161.481 30.1867 161.648 30.3867 161.741 30.64C161.834 30.88 161.881 31.1333 161.881 31.4V33.1H161.281C161.281 32.2467 161.061 31.6333 160.621 31.26C160.194 30.8867 159.581 30.7 158.781 30.7H155.561V35.7H160.761V36.6H155.561V42.1H158.981C159.714 42.1 160.334 41.94 160.841 41.62C161.361 41.2867 161.794 40.6867 162.141 39.82L162.681 40.02L162.101 41.6C161.954 42.0267 161.761 42.3667 161.521 42.62C161.294 42.8733 160.908 43 160.361 43H152.961ZM167.693 43V30.7H166.273C165.566 30.7 165.006 30.88 164.593 31.24C164.18 31.5867 163.973 32.2067 163.973 33.1H163.373V31.4C163.373 31.1333 163.42 30.88 163.513 30.64C163.606 30.3867 163.773 30.1867 164.013 30.04C164.266 29.88 164.62 29.8 165.073 29.8H174.473V30.7H170.293V43H167.693ZM176.457 43V32.4C176.457 31.8 176.37 31.32 176.197 30.96C176.037 30.5867 175.657 30.4 175.057 30.4H174.857V29.8H177.257C177.724 29.8 178.084 29.88 178.337 30.04C178.604 30.2 178.79 30.4667 178.897 30.84C179.004 31.2133 179.057 31.7333 179.057 32.4V40.4L184.857 29.8H187.257V43H184.657V32.4L178.857 43H176.457ZM190.637 43V32.4C190.637 31.8 190.55 31.32 190.377 30.96C190.217 30.5867 189.837 30.4 189.237 30.4H189.037V29.8H194.537C194.897 29.8 195.31 29.8267 195.777 29.88C196.243 29.92 196.717 30.0133 197.197 30.16C197.69 30.3067 198.143 30.5267 198.557 30.82C198.97 31.1133 199.303 31.5067 199.557 32C199.81 32.48 199.937 33.0867 199.937 33.82C199.937 34.5133 199.81 35.0933 199.557 35.56C199.303 36.0133 198.977 36.38 198.577 36.66C198.19 36.94 197.777 37.1533 197.337 37.3C196.897 37.4467 196.477 37.5467 196.077 37.6C195.69 37.64 195.377 37.66 195.137 37.66H193.237V43H190.637ZM193.237 36.86H194.437C194.783 36.86 195.117 36.8133 195.437 36.72C195.757 36.6267 196.043 36.46 196.297 36.22C196.55 35.98 196.75 35.66 196.897 35.26C197.057 34.8467 197.137 34.3333 197.137 33.72C197.137 33.1067 197.057 32.6 196.897 32.2C196.75 31.7867 196.55 31.4667 196.297 31.24C196.057 31 195.783 30.8333 195.477 30.74C195.17 30.6467 194.857 30.6 194.537 30.6C194.39 30.6 194.21 30.6067 193.997 30.62C193.797 30.6333 193.543 30.6733 193.237 30.74V36.86ZM207.62 43.4C206.3 43.4 205.14 43.0933 204.14 42.48C203.153 41.8533 202.386 41.0133 201.84 39.96C201.293 38.9067 201.02 37.72 201.02 36.4C201.02 35.08 201.293 33.8933 201.84 32.84C202.386 31.7867 203.153 30.9533 204.14 30.34C205.14 29.7133 206.3 29.4 207.62 29.4C208.953 29.4 210.106 29.7133 211.08 30.34C212.066 30.9533 212.833 31.7867 213.38 32.84C213.926 33.8933 214.2 35.08 214.2 36.4C214.2 37.72 213.926 38.9067 213.38 39.96C212.833 41.0133 212.066 41.8533 211.08 42.48C210.106 43.0933 208.953 43.4 207.62 43.4ZM207.62 42.5C208.433 42.5 209.12 42.2667 209.68 41.8C210.253 41.32 210.686 40.6267 210.98 39.72C211.286 38.8 211.44 37.6933 211.44 36.4C211.44 35.0933 211.286 33.9867 210.98 33.08C210.686 32.1733 210.253 31.4867 209.68 31.02C209.12 30.54 208.433 30.3 207.62 30.3C206.82 30.3 206.133 30.54 205.56 31.02C205 31.4867 204.566 32.1733 204.26 33.08C203.966 33.9867 203.82 35.0933 203.82 36.4C203.82 37.6933 203.966 38.8 204.26 39.72C204.566 40.6267 205 41.32 205.56 41.8C206.133 42.2667 206.82 42.5 207.62 42.5ZM216.73 43V32.4C216.73 31.8 216.644 31.32 216.47 30.96C216.31 30.5867 215.93 30.4 215.33 30.4H215.13V29.8H220.53C221.157 29.8 221.81 29.84 222.49 29.92C223.184 29.9867 223.824 30.14 224.41 30.38C225.01 30.6067 225.497 30.9533 225.87 31.42C226.244 31.8867 226.43 32.5133 226.43 33.3C226.43 33.8733 226.197 34.44 225.73 35C225.277 35.5467 224.584 35.94 223.65 36.18C224.53 36.26 225.21 36.4533 225.69 36.76C226.184 37.0667 226.53 37.4467 226.73 37.9C226.93 38.34 227.03 38.82 227.03 39.34C227.03 40.1 226.857 40.72 226.51 41.2C226.177 41.68 225.724 42.0533 225.15 42.32C224.577 42.5733 223.937 42.7533 223.23 42.86C222.537 42.9533 221.837 43 221.13 43H216.73ZM220.83 42.2C221.937 42.2 222.777 41.96 223.35 41.48C223.937 41 224.23 40.32 224.23 39.44C224.23 38.52 223.944 37.8333 223.37 37.38C222.81 36.9133 221.964 36.68 220.83 36.68H219.33V42C219.477 42.04 219.684 42.0867 219.95 42.14C220.217 42.18 220.51 42.2 220.83 42.2ZM219.33 35.78H220.83C221.377 35.78 221.857 35.7 222.27 35.54C222.697 35.3667 223.03 35.0933 223.27 34.72C223.51 34.3333 223.63 33.8267 223.63 33.2C223.63 32.5333 223.477 32.0133 223.17 31.64C222.877 31.2667 222.49 31 222.01 30.84C221.544 30.68 221.05 30.6 220.53 30.6C220.384 30.6 220.217 30.6067 220.03 30.62C219.857 30.6333 219.624 30.6733 219.33 30.74V35.78ZM240.144 43.08C239.704 43.08 239.238 43.0267 238.744 42.92C238.264 42.8 237.798 42.5533 237.344 42.18C236.904 41.8067 236.524 41.24 236.204 40.48L235.744 39.36H230.424L228.784 43H227.744L233.644 29.8H234.544L239.024 40.48C239.264 41.0667 239.558 41.5333 239.904 41.88C240.251 42.2267 240.651 42.4267 241.104 42.48V42.98C240.998 43.0067 240.844 43.0267 240.644 43.04C240.458 43.0667 240.291 43.08 240.144 43.08ZM230.844 38.46H235.364L233.164 33.24L230.844 38.46ZM242.434 43V32.4C242.434 31.8 242.347 31.32 242.174 30.96C242.014 30.5867 241.634 30.4 241.034 30.4H240.834V29.8H243.234C243.7 29.8 244.06 29.88 244.314 30.04C244.58 30.2 244.767 30.4667 244.874 30.84C244.98 31.2133 245.034 31.7333 245.034 32.4V35.7H250.434V29.8H253.034V40.4C253.034 41 253.114 41.4867 253.274 41.86C253.447 42.22 253.834 42.4 254.434 42.4H254.634V43H252.234C251.767 43 251.4 42.9267 251.134 42.78C250.88 42.62 250.7 42.3533 250.594 41.98C250.487 41.5933 250.434 41.0667 250.434 40.4V36.6H245.034V43H242.434ZM256.828 43V32.4C256.828 31.8 256.741 31.32 256.568 30.96C256.408 30.5867 256.028 30.4 255.428 30.4H255.228V29.8H257.628C258.095 29.8 258.455 29.88 258.708 30.04C258.975 30.2 259.161 30.4667 259.268 30.84C259.375 31.2133 259.428 31.7333 259.428 32.4V40.4L265.228 29.8H267.628V43H265.028V32.4L259.228 43H256.828ZM271.008 43V32.4C271.008 31.8 270.921 31.32 270.748 30.96C270.588 30.5867 270.208 30.4 269.608 30.4H269.408V29.8H278.228C278.694 29.8 279.048 29.88 279.288 30.04C279.528 30.1867 279.694 30.3867 279.788 30.64C279.881 30.88 279.928 31.1333 279.928 31.4V33.1H279.328C279.328 32.2467 279.108 31.6333 278.668 31.26C278.241 30.8867 277.628 30.7 276.828 30.7H273.608V35.7H278.808V36.6H273.608V42.1H277.028C277.761 42.1 278.381 41.94 278.888 41.62C279.408 41.2867 279.841 40.6867 280.188 39.82L280.728 40.02L280.148 41.6C280.001 42.0267 279.808 42.3667 279.568 42.62C279.341 42.8733 278.954 43 278.408 43H271.008Z" fill="white"/>
<mask id="mask0_188_2" style="mask-type:alpha" maskUnits="userSpaceOnUse" x="42" y="17" width="43" height="40">
<rect x="42.65" y="17" width="42" height="40" fill="#D9D9D9"/>
</mask>
<g mask="url(#mask0_188_2)">
<path d="M63.2126 46.6667C63.8251 46.6667 64.3428 46.4653 64.7657 46.0625C65.1886 45.6597 65.4001 45.1667 65.4001 44.5833C65.4001 44 65.1886 43.5069 64.7657 43.1042C64.3428 42.7014 63.8251 42.5 63.2126 42.5C62.6001 42.5 62.0823 42.7014 61.6594 43.1042C61.2365 43.5069 61.0251 44 61.0251 44.5833C61.0251 45.1667 61.2365 45.6597 61.6594 46.0625C62.0823 46.4653 62.6001 46.6667 63.2126 46.6667ZM61.6376 40.25H64.8751C64.8751 39.3333 64.9844 38.6111 65.2032 38.0833C65.4219 37.5556 66.0417 36.8333 67.0626 35.9167C67.8209 35.1944 68.4188 34.5069 68.8563 33.8542C69.2938 33.2014 69.5126 32.4167 69.5126 31.5C69.5126 29.9444 68.9146 28.75 67.7188 27.9167C66.523 27.0833 65.1084 26.6667 63.4751 26.6667C61.8126 26.6667 60.4636 27.0833 59.4282 27.9167C58.3928 28.75 57.6709 29.75 57.2626 30.9167L60.1501 32C60.2959 31.5 60.624 30.9583 61.1344 30.375C61.6448 29.7917 62.4251 29.5 63.4751 29.5C64.4084 29.5 65.1084 29.7431 65.5751 30.2292C66.0417 30.7153 66.2751 31.25 66.2751 31.8333C66.2751 32.3889 66.1001 32.9097 65.7501 33.3958C65.4001 33.8819 64.9626 34.3333 64.4376 34.75C63.1542 35.8333 62.3667 36.6528 62.0751 37.2083C61.7834 37.7639 61.6376 38.7778 61.6376 40.25ZM63.3001 53.3333C60.8792 53.3333 58.6042 52.8958 56.4751 52.0208C54.3459 51.1458 52.4938 49.9583 50.9188 48.4583C49.3438 46.9583 48.0969 45.1945 47.1782 43.1667C46.2594 41.1389 45.8 38.9722 45.8 36.6667C45.8 34.3611 46.2594 32.1944 47.1782 30.1667C48.0969 28.1389 49.3438 26.375 50.9188 24.875C52.4938 23.375 54.3459 22.1875 56.4751 21.3125C58.6042 20.4375 60.8792 20 63.3001 20C65.7209 20 67.9959 20.4375 70.1251 21.3125C72.2542 22.1875 74.1063 23.375 75.6813 24.875C77.2563 26.375 78.5032 28.1389 79.4219 30.1667C80.3407 32.1944 80.8001 34.3611 80.8001 36.6667C80.8001 38.9722 80.3407 41.1389 79.4219 43.1667C78.5032 45.1945 77.2563 46.9583 75.6813 48.4583C74.1063 49.9583 72.2542 51.1458 70.1251 52.0208C67.9959 52.8958 65.7209 53.3333 63.3001 53.3333Z" fill="white"/>
</g>
<defs>
<filter id="filter0_d_188_2" x="0.7" y="0.7" width="350.6" height="78.6" filterUnits="userSpaceOnUse" color-interpolation-filters="sRGB">
<feFlood flood-opacity="0" result="BackgroundImageFix"/>
<feColorMatrix in="SourceAlpha" type="matrix" values="0 0 0 0 0 0 0 0 0 0 0 0 0 0 0 0 0 0 127 0" result="hardAlpha"/>
<feOffset dy="4"/>
<feGaussianBlur stdDeviation="3.65"/>
<feComposite in2="hardAlpha" operator="out"/>
<feColorMatrix type="matrix" values="0 0 0 0 0 0 0 0 0 0 0 0 0 0 0 0 0 0 0.25 0"/>
<feBlend mode="normal" in2="BackgroundImageFix" result="effect1_dropShadow_188_2"/>
<feBlend mode="normal" in="SourceGraphic" in2="effect1_dropShadow_188_2" result="shape"/>
</filter>
<linearGradient id="paint0_linear_188_2" x1="185.832" y1="4" x2="187.27" y2="68.0253" gradientUnits="userSpaceOnUse">
<stop offset="0.140625" stop-color="#D8A4D9"/>
<stop offset="0.4375" stop-color="#B168A1"/>
<stop offset="1" stop-color="#795767"/>
</linearGradient>
<linearGradient id="paint1_linear_188_2" x1="176" y1="4" x2="176" y2="68" gradientUnits="userSpaceOnUse">
<stop stop-color="#AC61B2"/>
<stop offset="1" stop-color="#6173B2" stop-opacity="0.43"/>
</linearGradient>
</defs>
</svg>
