<svg width="26" height="26" viewBox="0 0 26 26" fill="none" xmlns="http://www.w3.org/2000/svg">
<rect width="26" height="26" rx="3" fill="#FEB945"/>
<mask id="mask0_58_16" style="mask-type:alpha" maskUnits="userSpaceOnUse" x="3" y="3" width="20" height="20">
<rect x="3" y="3" width="20" height="20" fill="#D9D9D9"/>
</mask>
<g mask="url(#mask0_58_16)">
<path d="M10.7084 21.3337L10.3751 18.667C10.1945 18.5975 10.0244 18.5142 9.86464 18.417C9.70492 18.3198 9.54867 18.2156 9.39589 18.1045L6.91673 19.1462L4.62506 15.1878L6.77089 13.5628C6.75701 13.4656 6.75006 13.3719 6.75006 13.2816V12.7191C6.75006 12.6288 6.75701 12.535 6.77089 12.4378L4.62506 10.8128L6.91673 6.85449L9.39589 7.89616C9.54867 7.78505 9.70839 7.68088 9.87506 7.58366C10.0417 7.48644 10.2084 7.4031 10.3751 7.33366L10.7084 4.66699H15.2917L15.6251 7.33366C15.8056 7.4031 15.9758 7.48644 16.1355 7.58366C16.2952 7.68088 16.4514 7.78505 16.6042 7.89616L19.0834 6.85449L21.3751 10.8128L19.2292 12.4378C19.2431 12.535 19.2501 12.6288 19.2501 12.7191V13.2816C19.2501 13.3719 19.2362 13.4656 19.2084 13.5628L21.3542 15.1878L19.0626 19.1462L16.6042 18.1045C16.4514 18.2156 16.2917 18.3198 16.1251 18.417C15.9584 18.5142 15.7917 18.5975 15.6251 18.667L15.2917 21.3337H10.7084ZM13.0417 15.917C13.8473 15.917 14.5348 15.6323 15.1042 15.0628C15.6737 14.4934 15.9584 13.8059 15.9584 13.0003C15.9584 12.1948 15.6737 11.5073 15.1042 10.9378C14.5348 10.3684 13.8473 10.0837 13.0417 10.0837C12.2223 10.0837 11.5313 10.3684 10.9688 10.9378C10.4063 11.5073 10.1251 12.1948 10.1251 13.0003C10.1251 13.8059 10.4063 14.4934 10.9688 15.0628C11.5313 15.6323 12.2223 15.917 13.0417 15.917Z" fill="white"/>
</g>
</svg>
