<svg width="24.000000" height="24.000000" viewBox="0 0 24 24" fill="none" xmlns="http://www.w3.org/2000/svg" xmlns:xlink="http://www.w3.org/1999/xlink">
	<desc>
			Created with Pixso.
	</desc>
	<defs>
		<filter id="filter_61_2_dd" x="-1.000000" y="3.000000" width="27.000000" height="26.242676" filterUnits="userSpaceOnUse" color-interpolation-filters="sRGB">
			<feFlood flood-opacity="0" result="BackgroundImageFix"/>
			<feColorMatrix in="SourceAlpha" type="matrix" values="0 0 0 0 0 0 0 0 0 0 0 0 0 0 0 0 0 0 127 0" result="hardAlpha"/>
			<feOffset dx="0" dy="4"/>
			<feGaussianBlur stdDeviation="1.33333"/>
			<feComposite in2="hardAlpha" operator="out" k2="-1" k3="1"/>
			<feColorMatrix type="matrix" values="0 0 0 0 0 0 0 0 0 0 0 0 0 0 0 0 0 0 0.25 0"/>
			<feBlend mode="normal" in2="BackgroundImageFix" result="effect_dropShadow_1"/>
			<feBlend mode="normal" in="SourceGraphic" in2="effect_dropShadow_1" result="shape"/>
		</filter>
		<clipPath id="clip61_1">
			<rect id="ClockCounterClockwise" width="24.000000" height="24.000000" fill="white" fill-opacity="0"/>
		</clipPath>
	</defs>
	<g clip-path="url(#clip61_1)">
		<g filter="url(#filter_61_2_dd)">
			<path id="path" d="M22 12.1226C22 12.5654 21.9679 13.0059 21.9037 13.4443C21.8395 13.8828 21.7439 14.314 21.6168 14.7383C21.4899 15.1626 21.3328 15.5757 21.1455 15.9771C20.9583 16.3784 20.7429 16.7642 20.4995 17.1343C20.2561 17.5044 19.9872 17.855 19.6926 18.186C19.3982 18.5166 19.0813 18.8247 18.7419 19.1094C18.4026 19.394 18.0444 19.6523 17.6674 19.8853C17.2903 20.1177 16.8984 20.3218 16.4917 20.4971C16.085 20.6724 15.6676 20.8174 15.2397 20.9321C14.8119 21.0469 14.3779 21.1299 13.938 21.1812C13.498 21.2324 13.0566 21.2515 12.6139 21.2388C12.171 21.2261 11.7316 21.1807 11.2953 21.104C10.8591 21.0269 10.4308 20.9189 10.0103 20.7793C9.58984 20.6401 9.18164 20.4707 8.78589 20.272C8.39001 20.0732 8.01074 19.8467 7.64795 19.5928C7.28503 19.3384 6.94263 19.0596 6.62048 18.7554C6.54712 18.686 6.48987 18.6055 6.44861 18.5132C6.40747 18.4214 6.38538 18.3247 6.38257 18.2241C6.37964 18.123 6.39624 18.0254 6.43213 17.9312C6.46814 17.8369 6.52075 17.7534 6.59009 17.6797C6.6593 17.6064 6.73999 17.5493 6.83203 17.5083C6.92419 17.4668 7.02063 17.4448 7.12146 17.4419C7.22229 17.439 7.31982 17.4556 7.41406 17.4917C7.5083 17.5278 7.59216 17.5801 7.66541 17.6494C7.84534 17.8193 8.0332 17.98 8.22876 18.1313C8.42444 18.2827 8.62695 18.4243 8.83643 18.5557C9.04578 18.6875 9.26123 18.8086 9.48242 18.9194C9.70374 19.0298 9.92981 19.1294 10.1609 19.2178C10.3918 19.3066 10.6266 19.3838 10.8651 19.4492C11.1036 19.5146 11.3448 19.5688 11.5886 19.6108C11.8324 19.6528 12.0776 19.6831 12.3243 19.7012C12.571 19.7192 12.818 19.7251 13.0653 19.7192C13.3126 19.7134 13.5591 19.6953 13.8046 19.665C14.0502 19.6348 14.2937 19.5928 14.535 19.5391C14.7765 19.4854 15.0148 19.4199 15.2499 19.3428C15.4849 19.2656 15.7156 19.1772 15.942 19.0776C16.1685 18.978 16.3895 18.8677 16.6051 18.7461C16.8208 18.625 17.03 18.4937 17.2328 18.3521C17.4357 18.2104 17.631 18.0591 17.8191 17.8984C18.0071 17.7378 18.1869 17.5679 18.3584 17.3896C18.5298 17.2114 18.6923 17.0254 18.8456 16.8311C18.9988 16.6372 19.1423 16.436 19.276 16.2275C19.4097 16.0195 19.5328 15.8052 19.6456 15.585C19.7583 15.3647 19.8601 15.1396 19.9508 14.9097C20.0416 14.6797 20.121 14.4453 20.1888 14.2075C20.2567 13.9697 20.3129 13.729 20.3573 13.4858C20.4017 13.2422 20.4342 12.9976 20.4546 12.751C20.4751 12.5044 20.4835 12.2573 20.48 12.0103C20.4763 11.7627 20.4607 11.5161 20.433 11.2705C20.4053 11.0244 20.3657 10.7808 20.3142 10.5386C20.2627 10.2969 20.1995 10.0581 20.1246 9.82227C20.0498 9.58643 19.9636 9.35449 19.8662 9.12744C19.7687 8.8999 19.6604 8.67773 19.5413 8.46094C19.4221 8.24414 19.2927 8.03369 19.1531 7.82959C19.0133 7.62549 18.864 7.42871 18.7051 7.23926C18.5461 7.04932 18.3784 6.86816 18.2018 6.69482C18.0251 6.52148 17.8405 6.35742 17.6478 6.20215C17.4552 6.04736 17.2554 5.90186 17.0486 5.76611C16.8417 5.63037 16.6287 5.50537 16.4095 5.39014C16.1906 5.27539 15.9663 5.17139 15.7371 5.07861C15.5078 4.98535 15.2747 4.90381 15.0375 4.83398C14.8002 4.76367 14.5602 4.70508 14.3173 4.6582C14.0743 4.61182 13.8297 4.57666 13.5834 4.55371C13.337 4.53125 13.0902 4.52002 12.8428 4.52148C12.5955 4.52295 12.3488 4.53613 12.1027 4.56152C11.8566 4.58643 11.6123 4.62402 11.3699 4.67285C11.1274 4.72217 10.8879 4.7832 10.6515 4.85547C10.4149 4.92822 10.1826 5.01221 9.95422 5.10742C9.72595 5.20264 9.50281 5.30859 9.28491 5.42578C9.06702 5.54297 8.85522 5.67041 8.64978 5.80811C8.44421 5.9458 8.24597 6.09326 8.05481 6.25C7.86377 6.40723 7.68079 6.57324 7.50586 6.74805C7.17053 7.0874 6.8551 7.4209 6.54822 7.75244L8.09766 9.30469C8.20654 9.41357 8.27588 9.54297 8.30591 9.69385C8.33606 9.84473 8.32153 9.99121 8.2627 10.1333C8.20386 10.2754 8.11047 10.3892 7.98254 10.4746C7.85461 10.5601 7.71375 10.6025 7.56006 10.6025L3.76001 10.6025C3.65918 10.6025 3.56226 10.583 3.46912 10.5444C3.3761 10.5059 3.29382 10.4512 3.22266 10.3799C3.15137 10.3086 3.09644 10.2266 3.05786 10.1333C3.01929 10.04 3 9.94336 3 9.84229L3 6.04248C2.99988 5.88867 3.04248 5.74756 3.12793 5.62012C3.21326 5.49219 3.32703 5.39844 3.46912 5.33984C3.61121 5.28076 3.75757 5.2666 3.90845 5.29639C4.0592 5.32666 4.18896 5.396 4.29773 5.50488L5.46997 6.67871C5.77588 6.34717 6.09131 6.01416 6.42566 5.67676C6.74268 5.35889 7.0813 5.06641 7.44153 4.79883C7.80164 4.53125 8.17957 4.2915 8.5752 4.08008C8.9707 3.86816 9.37964 3.68652 9.802 3.53516C10.2245 3.38379 10.6556 3.26416 11.0957 3.17627C11.5356 3.08838 11.9797 3.03369 12.428 3.01123C12.8761 2.98877 13.3235 2.99951 13.77 3.04346C14.2166 3.0874 14.6575 3.16357 15.0928 3.27246C15.5281 3.38135 15.953 3.52148 16.3676 3.69336C16.7822 3.86475 17.182 4.06592 17.5669 4.29639C17.9518 4.52686 18.3177 4.78467 18.6646 5.06934C19.0115 5.354 19.3356 5.6626 19.637 5.99463C19.9384 6.32715 20.2136 6.68018 20.4629 7.05322C20.7123 7.42627 20.9327 7.81543 21.1246 8.22119C21.3164 8.62695 21.4774 9.04443 21.6077 9.47363C21.7378 9.90332 21.8358 10.3398 21.9016 10.7837C21.9673 11.2275 22.0001 11.6738 22 12.1226ZM12.88 6.80225C12.7792 6.80225 12.6823 6.82178 12.5891 6.86035C12.4961 6.89893 12.4138 6.95361 12.3427 7.0249C12.2714 7.09619 12.2164 7.17871 12.1779 7.27148C12.1393 7.36475 12.12 7.46143 12.12 7.5625L12.12 12.1226C12.12 12.2559 12.1528 12.3809 12.2185 12.4966C12.2842 12.6128 12.3743 12.7056 12.4886 12.7739L16.2886 15.0542C16.375 15.106 16.4681 15.1396 16.5679 15.1548C16.6676 15.1694 16.7664 15.1646 16.8643 15.1406C16.9622 15.1162 17.0516 15.0737 17.1327 15.0137C17.2137 14.9536 17.2803 14.8804 17.3322 14.7939C17.3842 14.7075 17.4175 14.6147 17.4324 14.5146C17.4473 14.415 17.4425 14.3164 17.418 14.2183C17.3936 14.1206 17.3513 14.0312 17.2913 13.9502C17.2312 13.8691 17.158 13.8027 17.0714 13.751L13.64 11.6919L13.64 7.5625C13.64 7.46143 13.6207 7.36475 13.5822 7.27148C13.5436 7.17871 13.4886 7.09619 13.4174 7.0249C13.3462 6.95361 13.2639 6.89893 13.1709 6.86035C13.0778 6.82178 12.9808 6.80225 12.88 6.80225Z" fill="#FFFFFF" fill-opacity="1.000000" fill-rule="nonzero"/>
		</g>
	</g>
</svg>
