<svg width="172.000000" height="40.000000" viewBox="0 0 172 40" fill="none" xmlns="http://www.w3.org/2000/svg" xmlns:xlink="http://www.w3.org/1999/xlink">
	<desc>
			Created with Pixso.
	</desc>
	<defs>
		<linearGradient id="paint_linear_24_17_0" x1="-10.386444" y1="77.500046" x2="215.207733" y2="-78.333328" gradientUnits="userSpaceOnUse">
			<stop stop-color="#FC7317"/>
			<stop offset="1.000000" stop-color="#FFDB5A"/>
		</linearGradient>
	</defs>
	<path id="Прямоугольник 10" d="M0 0L165 0C168.866 0 172 3.13403 172 7L172 40L7 40C3.134 40 0 36.866 0 33L0 0Z" fill="url(#paint_linear_24_17_0)" fill-opacity="1.000000" fill-rule="evenodd"/>
	<path id="СКАЧАТЬ" d="M56.5121 25.375Q56.848 25.375 57.184 25.2969Q57.5199 25.2148 57.8558 25.0703L58.3051 23.0234L59.5199 23.0234L59.4574 25.4883Q58.8168 25.8398 57.9769 26.0703Q57.1371 26.3047 56.098 26.3047Q54.559 26.3047 53.2933 25.6875Q52.0316 25.0703 51.2855 23.8398Q50.5433 22.6094 50.5433 20.7344Q50.5433 19.3125 51.0004 18.2734Q51.4574 17.2305 52.2465 16.543Q53.0394 15.8555 54.0629 15.5195Q55.0902 15.1836 56.2074 15.1836Q57.1215 15.1836 57.8715 15.3867Q58.6254 15.5859 59.3441 15.9844L59.4066 18.4648L58.1918 18.4648L57.7269 16.3672Q57.184 16.0977 56.5746 16.0977Q55.7269 16.0977 55.0004 16.5781Q54.2738 17.0547 53.8246 18.0898Q53.3754 19.1211 53.3754 20.7539Q53.3754 22.3828 53.8051 23.3984Q54.2386 24.4141 54.9496 24.8945Q55.6644 25.375 56.5121 25.375ZM67.0578 24.6562L66.4953 22.2734Q66.3664 21.6641 65.968 21.4023Q65.5696 21.1367 64.9602 21.1367L64.4016 21.1367Q64.4016 22.1758 64.4094 23.1289Q64.4172 24.0781 64.4328 25.0234L65.5539 25.1367L65.5539 26L60.4797 26L60.4797 25.1367L61.6789 25.0078Q61.7141 24.0312 61.7141 23.0391Q61.7141 22.0469 61.7141 21.0391L61.7141 20.4492Q61.7141 19.457 61.7141 18.4648Q61.7141 17.4727 61.6789 16.4805L60.4797 16.3516L60.4797 15.4883L65.5539 15.4883L65.5539 16.3516L64.4328 16.4648Q64.4172 17.4414 64.4094 18.4258Q64.4016 19.4062 64.4016 20.2578L64.8313 20.2578Q65.3117 20.2578 65.6555 20.1133Q65.9992 19.9688 66.2883 19.5391Q66.5774 19.1055 66.8625 18.2227Q67.3781 16.7031 67.9055 16.0078Q68.4328 15.3125 69.0891 15.1836Q70.4953 15.2148 70.4953 16.418Q70.4953 16.9102 70.1125 17.2734Q69.7297 17.6328 68.8977 17.6328Q68.4953 17.6328 68.1438 17.5508Q67.9055 18 67.6789 18.6406Q67.3938 19.457 67.0578 19.9375Q66.7219 20.4141 66.2102 20.6406Q67.6477 20.8008 68.3899 21.418Q69.136 22.0312 69.3938 23.2656L69.8078 25.0391L71.0422 25.1367L71.0422 26Q70.5774 26.1289 70.1516 26.1758Q69.7297 26.2227 69.3586 26.2227Q68.4016 26.2227 67.8313 25.9375Q67.2649 25.6484 67.0578 24.6562ZM75.905 17.9375L74.5769 22.0156L77.2019 22.0156L75.905 17.9375ZM71.4089 26L71.4089 25.1367L72.7058 24.9453L75.9519 15.4727L77.6003 15.4727L80.8816 25.0547L81.8581 25.168L81.8581 26L76.9128 26L76.9128 25.168L78.1433 25.0078L77.487 22.9453L74.2722 22.9453L73.6316 24.9453L74.8503 25.1367L74.8503 26L71.4089 26ZM86.1747 16.3516L86.1747 15.4883L91.2177 15.4883L91.2177 16.3516L89.9989 16.4805Q89.9833 17.457 89.9755 18.4492Q89.9677 19.4414 89.9677 20.4492L89.9677 21.0234Q89.9677 22.0156 89.9755 23.0156Q89.9833 24.0156 89.9989 25.0078L91.2177 25.1367L91.2177 26L85.9364 26L85.9364 25.1367L87.2489 25.0078Q87.2802 24.1602 87.2802 23.3203Q87.2802 22.4805 87.2802 21.6953Q86.8153 21.793 86.2802 21.8477Q85.745 21.9023 85.12 21.9023Q83.9833 21.9023 83.1747 21.625Q82.37 21.3438 81.9521 20.5547Q81.538 19.7617 81.538 18.2227L81.538 16.4648L80.495 16.3516L80.495 15.4883L85.456 15.4883L85.456 16.3516L84.2099 16.4805Q84.1942 17.0078 84.1942 17.5273Q84.1942 18.0469 84.1942 18.4492Q84.1942 19.457 84.3505 19.9766Q84.5107 20.4961 84.9091 20.6797Q85.3114 20.8633 86.0146 20.8633Q86.3505 20.8633 86.6552 20.8398Q86.9599 20.8164 87.2802 20.7852L87.2802 20.4492Q87.2802 19.457 87.2802 18.457Q87.2802 17.457 87.2489 16.4648L86.1747 16.3516ZM96.385 17.9375L95.0569 22.0156L97.6819 22.0156L96.385 17.9375ZM91.8889 26L91.8889 25.1367L93.1858 24.9453L96.4319 15.4727L98.0803 15.4727L101.362 25.0547L102.338 25.168L102.338 26L97.3928 26L97.3928 25.168L98.6233 25.0078L97.967 22.9453L94.7522 22.9453L94.1116 24.9453L95.3303 25.1367L95.3303 26L91.8889 26ZM105.087 21.0391L105.087 20.4492Q105.087 19.4414 105.087 18.4258Q105.087 17.4062 105.056 16.3828L103.313 16.3828L103.009 18.4648L101.681 18.4648L101.743 15.4883L111.138 15.4883L111.185 18.4648L109.856 18.4648L109.567 16.3828L107.81 16.3828Q107.794 17.375 107.782 18.3906Q107.774 19.4062 107.774 20.4492L107.774 21.0234Q107.774 22.0156 107.782 23.0078Q107.794 24 107.81 24.9922L109.185 25.1367L109.185 26L103.696 26L103.696 25.1367L105.056 24.9922Q105.087 24.0156 105.087 23.0234Q105.087 22.0312 105.087 21.0391ZM112.032 16.3516L112.032 15.4883L117.231 15.4883L117.231 16.3516L115.954 16.4805Q115.938 17.3125 115.926 18.1055Q115.918 18.8945 115.918 19.6016Q116.239 19.5859 116.567 19.5781Q116.895 19.5664 117.231 19.5664Q118.672 19.5664 119.551 20.0078Q120.434 20.4492 120.84 21.1602Q121.247 21.8711 121.247 22.6875Q121.247 23.2812 121.04 23.8672Q120.832 24.4492 120.313 24.9297Q119.793 25.4062 118.856 25.7031Q117.918 26 116.465 26L112.032 26L112.032 25.1367L113.2 25.0078Q113.231 24.0312 113.231 23.0391Q113.231 22.0469 113.231 21.0391L113.231 20.4492Q113.231 19.457 113.231 18.4648Q113.231 17.4727 113.2 16.4805L112.032 16.3516ZM115.918 21.0234Q115.918 22.0469 115.926 23.0547Q115.938 24.0625 115.954 25.0703L116.383 25.0703Q117.426 25.0703 118.016 24.4805Q118.61 23.8867 118.61 22.7695Q118.61 21.6328 118.094 21.0664Q117.582 20.4961 116.45 20.4961Q116.321 20.4961 116.184 20.4961Q116.047 20.4961 115.918 20.5117L115.918 21.0234Z" fill="#FFFFFF" fill-opacity="1.000000" fill-rule="evenodd"/>
</svg>
